solid OpenSCAD_Model
  facet normal -1 0 0
    outer loop
      vertex 0 0 0
      vertex 0 0 34
      vertex 0 30 0
    endloop
  endfacet
  facet normal -1 0 0
    outer loop
      vertex 0 9 30
      vertex 0 0 34
      vertex 0 9 34
    endloop
  endfacet
  facet normal -1 0 0
    outer loop
      vertex 0 30 0
      vertex 0 0 34
      vertex 0 9 30
    endloop
  endfacet
  facet normal -1 0 0
    outer loop
      vertex 0 30 0
      vertex 0 9 30
      vertex 0 10 30
    endloop
  endfacet
  facet normal -1 0 0
    outer loop
      vertex 0 30 30
      vertex 0 30 0
      vertex 0 29 30
    endloop
  endfacet
  facet normal -1 0 0
    outer loop
      vertex 0 19 30
      vertex 0 10 33
      vertex 0 19 33
    endloop
  endfacet
  facet normal -1 0 0
    outer loop
      vertex 0 30 0
      vertex 0 10 33
      vertex 0 19 30
    endloop
  endfacet
  facet normal -1 0 0
    outer loop
      vertex 0 30 0
      vertex 0 19 30
      vertex 0 20 30
    endloop
  endfacet
  facet normal -1 0 0
    outer loop
      vertex 0 20 30
      vertex 0 20 31
      vertex 0 30 0
    endloop
  endfacet
  facet normal -1 0 0
    outer loop
      vertex 0 29 30
      vertex 0 20 31
      vertex 0 29 31
    endloop
  endfacet
  facet normal -1 0 0
    outer loop
      vertex 0 30 0
      vertex 0 20 31
      vertex 0 29 30
    endloop
  endfacet
  facet normal -1 0 0
    outer loop
      vertex 0 10 33
      vertex 0 30 0
      vertex 0 10 30
    endloop
  endfacet
  facet normal 0 -1 0
    outer loop
      vertex 0 0 34
      vertex 0 0 0
      vertex 30 0 0
    endloop
  endfacet
  facet normal 0 -1 0
    outer loop
      vertex 9 0 30
      vertex 0 0 34
      vertex 30 0 0
    endloop
  endfacet
  facet normal 0 -1 0
    outer loop
      vertex 30 0 30
      vertex 29 0 30
      vertex 30 0 0
    endloop
  endfacet
  facet normal 0 -1 0
    outer loop
      vertex 29 0 31
      vertex 20 0 31
      vertex 29 0 30
    endloop
  endfacet
  facet normal 0 -1 0
    outer loop
      vertex 29 0 30
      vertex 20 0 31
      vertex 30 0 0
    endloop
  endfacet
  facet normal 0 -1 0
    outer loop
      vertex 20 0 31
      vertex 20 0 30
      vertex 30 0 0
    endloop
  endfacet
  facet normal 0 -1 0
    outer loop
      vertex 20 0 30
      vertex 19 0 30
      vertex 30 0 0
    endloop
  endfacet
  facet normal 0 -1 0
    outer loop
      vertex 19 0 31
      vertex 10 0 31
      vertex 19 0 30
    endloop
  endfacet
  facet normal 0 -1 0
    outer loop
      vertex 19 0 30
      vertex 10 0 31
      vertex 30 0 0
    endloop
  endfacet
  facet normal 0 -1 0
    outer loop
      vertex 10 0 31
      vertex 10 0 30
      vertex 30 0 0
    endloop
  endfacet
  facet normal 0 -1 0
    outer loop
      vertex 10 0 30
      vertex 9 0 30
      vertex 30 0 0
    endloop
  endfacet
  facet normal 0 -1 0
    outer loop
      vertex 9 0 30
      vertex 9 0 34
      vertex 0 0 34
    endloop
  endfacet
  facet normal 0 0 -1
    outer loop
      vertex 0 0 0
      vertex 0 30 0
      vertex 30 0 0
    endloop
  endfacet
  facet normal 0 0 -1
    outer loop
      vertex 30 0 0
      vertex 0 30 0
      vertex 30 30 0
    endloop
  endfacet
  facet normal 0 1 0
    outer loop
      vertex 16.546 30 30
      vertex 0 30 30
      vertex 30 30 30
    endloop
  endfacet
  facet normal 0 1 0
    outer loop
      vertex 0 30 0
      vertex 0 30 30
      vertex 5.51532 30 10
    endloop
  endfacet
  facet normal 0 1 0
    outer loop
      vertex 9 30 11
      vertex 9 30 10
      vertex 6.06685 30 11
    endloop
  endfacet
  facet normal 0 1 0
    outer loop
      vertex 0 30 0
      vertex 5.51532 30 10
      vertex 0.551532 30 1
    endloop
  endfacet
  facet normal 0 1 0
    outer loop
      vertex 0 30 0
      vertex 0.551532 30 1
      vertex 30 30 0
    endloop
  endfacet
  facet normal 0 1 0
    outer loop
      vertex 0.551532 30 1
      vertex 9 30 1
      vertex 30 30 0
    endloop
  endfacet
  facet normal 0 1 0
    outer loop
      vertex 10 30 18.1313
      vertex 0 30 30
      vertex 11.0306 30 20
    endloop
  endfacet
  facet normal 0 1 0
    outer loop
      vertex 6.06685 30 11
      vertex 0 30 30
      vertex 9 30 16.3182
    endloop
  endfacet
  facet normal 0 1 0
    outer loop
      vertex 5.51532 30 10
      vertex 0 30 30
      vertex 6.06685 30 11
    endloop
  endfacet
  facet normal 0 1 0
    outer loop
      vertex 5.51532 30 10
      vertex 6.06685 30 11
      vertex 9 30 10
    endloop
  endfacet
  facet normal 0 1 0
    outer loop
      vertex 10 30 10
      vertex 9 30 11
      vertex 10 30 11
    endloop
  endfacet
  facet normal 0 1 0
    outer loop
      vertex 10 30 1
      vertex 9 30 10
      vertex 10 30 10
    endloop
  endfacet
  facet normal 0 1 0
    outer loop
      vertex 9 30 16.3182
      vertex 0 30 30
      vertex 10 30 18.1313
    endloop
  endfacet
  facet normal 0 1 0
    outer loop
      vertex 19 30 11
      vertex 19 30 10
      vertex 10 30 11
    endloop
  endfacet
  facet normal 0 1 0
    outer loop
      vertex 9 30 11
      vertex 9 30 16.3182
      vertex 10 30 11
    endloop
  endfacet
  facet normal 0 1 0
    outer loop
      vertex 20 30 20
      vertex 29 30 21
      vertex 29 30 20
    endloop
  endfacet
  facet normal 0 1 0
    outer loop
      vertex 29 30 30
      vertex 30 30 30
      vertex 29 30 21
    endloop
  endfacet
  facet normal 0 1 0
    outer loop
      vertex 19 30 21
      vertex 19 30 20
      vertex 11.5822 30 21
    endloop
  endfacet
  facet normal 0 1 0
    outer loop
      vertex 29 30 10
      vertex 30 30 0
      vertex 29 30 1
    endloop
  endfacet
  facet normal 0 1 0
    outer loop
      vertex 9 30 10
      vertex 9 30 11
      vertex 10 30 10
    endloop
  endfacet
  facet normal 0 1 0
    outer loop
      vertex 20 30 10
      vertex 20 30 11
      vertex 29 30 10
    endloop
  endfacet
  facet normal 0 1 0
    outer loop
      vertex 9 30 1
      vertex 10 30 1
      vertex 30 30 0
    endloop
  endfacet
  facet normal 0 1 0
    outer loop
      vertex 10 30 10
      vertex 10 30 11
      vertex 19 30 10
    endloop
  endfacet
  facet normal 0 1 0
    outer loop
      vertex 10 30 1
      vertex 19 30 1
      vertex 30 30 0
    endloop
  endfacet
  facet normal 0 1 0
    outer loop
      vertex 10 30 11
      vertex 9 30 16.3182
      vertex 10 30 18.1313
    endloop
  endfacet
  facet normal 0 1 0
    outer loop
      vertex 11.5822 30 21
      vertex 0 30 30
      vertex 16.546 30 30
    endloop
  endfacet
  facet normal 0 1 0
    outer loop
      vertex 19 30 30
      vertex 16.546 30 30
      vertex 30 30 30
    endloop
  endfacet
  facet normal 0 1 0
    outer loop
      vertex 11.0306 30 20
      vertex 0 30 30
      vertex 11.5822 30 21
    endloop
  endfacet
  facet normal 0 1 0
    outer loop
      vertex 11.0306 30 20
      vertex 11.5822 30 21
      vertex 19 30 20
    endloop
  endfacet
  facet normal 0 1 0
    outer loop
      vertex 20 30 21
      vertex 19 30 21
      vertex 20 30 30
    endloop
  endfacet
  facet normal 0 1 0
    outer loop
      vertex 20 30 11
      vertex 19 30 11
      vertex 20 30 20
    endloop
  endfacet
  facet normal 0 1 0
    outer loop
      vertex 20 30 30
      vertex 19 30 30
      vertex 30 30 30
    endloop
  endfacet
  facet normal 0 1 0
    outer loop
      vertex 19 30 21
      vertex 19 30 30
      vertex 20 30 30
    endloop
  endfacet
  facet normal 0 1 0
    outer loop
      vertex 29 30 30
      vertex 20 30 30
      vertex 30 30 30
    endloop
  endfacet
  facet normal 0 1 0
    outer loop
      vertex 19 30 20
      vertex 19 30 21
      vertex 20 30 21
    endloop
  endfacet
  facet normal 0 1 0
    outer loop
      vertex 30 30 0
      vertex 29 30 21
      vertex 30 30 30
    endloop
  endfacet
  facet normal 0 1 0
    outer loop
      vertex 29 30 21
      vertex 19 30 20
      vertex 20 30 21
    endloop
  endfacet
  facet normal 0 1 0
    outer loop
      vertex 29 30 21
      vertex 20 30 20
      vertex 19 30 20
    endloop
  endfacet
  facet normal 0 1 0
    outer loop
      vertex 19 30 11
      vertex 19 30 20
      vertex 20 30 20
    endloop
  endfacet
  facet normal 0 1 0
    outer loop
      vertex 20 30 10
      vertex 19 30 11
      vertex 20 30 11
    endloop
  endfacet
  facet normal 0 1 0
    outer loop
      vertex 29 30 10
      vertex 20 30 11
      vertex 29 30 11
    endloop
  endfacet
  facet normal 0 1 0
    outer loop
      vertex 30 30 0
      vertex 29 30 20
      vertex 29 30 21
    endloop
  endfacet
  facet normal 0 1 0
    outer loop
      vertex 29 30 11
      vertex 29 30 20
      vertex 30 30 0
    endloop
  endfacet
  facet normal 0 1 0
    outer loop
      vertex 20 30 1
      vertex 19 30 10
      vertex 19 30 11
    endloop
  endfacet
  facet normal 0 1 0
    outer loop
      vertex 19 30 1
      vertex 20 30 1
      vertex 30 30 0
    endloop
  endfacet
  facet normal 0 1 0
    outer loop
      vertex 20 30 1
      vertex 19 30 11
      vertex 20 30 10
    endloop
  endfacet
  facet normal 0 1 0
    outer loop
      vertex 30 30 0
      vertex 29 30 10
      vertex 29 30 11
    endloop
  endfacet
  facet normal 0 1 0
    outer loop
      vertex 19 30 10
      vertex 20 30 1
      vertex 19 30 1
    endloop
  endfacet
  facet normal 0 1 0
    outer loop
      vertex 29 30 1
      vertex 30 30 0
      vertex 20 30 1
    endloop
  endfacet
  facet normal 0 1 0
    outer loop
      vertex 9 30 10
      vertex 10 30 1
      vertex 9 30 1
    endloop
  endfacet
  facet normal 0 0 1
    outer loop
      vertex 19 9 30
      vertex 20 9 30
      vertex 0 10 30
    endloop
  endfacet
  facet normal 0 0 1
    outer loop
      vertex 0 10 30
      vertex 0 9 30
      vertex 9 9 30
    endloop
  endfacet
  facet normal 0 0 1
    outer loop
      vertex 10 9 30
      vertex 0 10 30
      vertex 9 9 30
    endloop
  endfacet
  facet normal 0 0 1
    outer loop
      vertex 9 0 30
      vertex 10 0 30
      vertex 9 9 30
    endloop
  endfacet
  facet normal 0 0 1
    outer loop
      vertex 10 0 30
      vertex 10 9 30
      vertex 9 9 30
    endloop
  endfacet
  facet normal 0 0 1
    outer loop
      vertex 19 20 30
      vertex 10 20 30
      vertex 9 19 30
    endloop
  endfacet
  facet normal 0 0 1
    outer loop
      vertex 10 9 30
      vertex 19 9 30
      vertex 0 10 30
    endloop
  endfacet
  facet normal 0 0 1
    outer loop
      vertex 19 0 30
      vertex 20 0 30
      vertex 19 9 30
    endloop
  endfacet
  facet normal 0 0 1
    outer loop
      vertex 20 0 30
      vertex 20 9 30
      vertex 19 9 30
    endloop
  endfacet
  facet normal 0 0 1
    outer loop
      vertex 20 9 30
      vertex 29 9 30
      vertex 0 10 30
    endloop
  endfacet
  facet normal 0 0 1
    outer loop
      vertex 29 0 30
      vertex 30 0 30
      vertex 29 9 30
    endloop
  endfacet
  facet normal 0 0 1
    outer loop
      vertex 30 0 30
      vertex 30 30 30
      vertex 29 9 30
    endloop
  endfacet
  facet normal 0 0 1
    outer loop
      vertex 30 30 30
      vertex 0 30 30
      vertex 0 29 30
    endloop
  endfacet
  facet normal 0 0 1
    outer loop
      vertex 9 19 30
      vertex 9 10 30
      vertex 19 20 30
    endloop
  endfacet
  facet normal 0 0 1
    outer loop
      vertex 30 30 30
      vertex 0 29 30
      vertex 9 29 30
    endloop
  endfacet
  facet normal 0 0 1
    outer loop
      vertex 10 29 30
      vertex 9 29 30
      vertex 9 20 30
    endloop
  endfacet
  facet normal 0 0 1
    outer loop
      vertex 0 19 30
      vertex 9 19 30
      vertex 9 20 30
    endloop
  endfacet
  facet normal 0 0 1
    outer loop
      vertex 10 20 30
      vertex 9 20 30
      vertex 9 19 30
    endloop
  endfacet
  facet normal 0 0 1
    outer loop
      vertex 29 9 30
      vertex 9 10 30
      vertex 0 10 30
    endloop
  endfacet
  facet normal 0 0 1
    outer loop
      vertex 20 20 30
      vertex 19 20 30
      vertex 9 10 30
    endloop
  endfacet
  facet normal 0 0 1
    outer loop
      vertex 20 20 30
      vertex 20 29 30
      vertex 19 20 30
    endloop
  endfacet
  facet normal 0 0 1
    outer loop
      vertex 30 30 30
      vertex 9 29 30
      vertex 10 29 30
    endloop
  endfacet
  facet normal 0 0 1
    outer loop
      vertex 30 30 30
      vertex 10 29 30
      vertex 19 29 30
    endloop
  endfacet
  facet normal 0 0 1
    outer loop
      vertex 29 9 30
      vertex 20 10 30
      vertex 9 10 30
    endloop
  endfacet
  facet normal 0 0 1
    outer loop
      vertex 20 10 30
      vertex 20 19 30
      vertex 9 10 30
    endloop
  endfacet
  facet normal 0 0 1
    outer loop
      vertex 29 20 30
      vertex 20 20 30
      vertex 20 19 30
    endloop
  endfacet
  facet normal 0 0 1
    outer loop
      vertex 29 10 30
      vertex 30 30 30
      vertex 29 19 30
    endloop
  endfacet
  facet normal 0 0 1
    outer loop
      vertex 29 9 30
      vertex 29 10 30
      vertex 20 10 30
    endloop
  endfacet
  facet normal 0 0 1
    outer loop
      vertex 29 9 30
      vertex 30 30 30
      vertex 29 10 30
    endloop
  endfacet
  facet normal 0 0 1
    outer loop
      vertex 20 19 30
      vertex 20 20 30
      vertex 9 10 30
    endloop
  endfacet
  facet normal 0 0 1
    outer loop
      vertex 19 29 30
      vertex 19 20 30
      vertex 20 29 30
    endloop
  endfacet
  facet normal 0 0 1
    outer loop
      vertex 30 30 30
      vertex 19 29 30
      vertex 20 29 30
    endloop
  endfacet
  facet normal 0 0 1
    outer loop
      vertex 20 29 30
      vertex 29 29 30
      vertex 30 30 30
    endloop
  endfacet
  facet normal 0 0 1
    outer loop
      vertex 29 29 30
      vertex 29 20 30
      vertex 30 30 30
    endloop
  endfacet
  facet normal 0 0 1
    outer loop
      vertex 29 19 30
      vertex 30 30 30
      vertex 29 20 30
    endloop
  endfacet
  facet normal 0 0 1
    outer loop
      vertex 20 19 30
      vertex 29 19 30
      vertex 29 20 30
    endloop
  endfacet
  facet normal 0 0 1
    outer loop
      vertex 9 20 30
      vertex 0 20 30
      vertex 0 19 30
    endloop
  endfacet
  facet normal 0 0 1
    outer loop
      vertex 10 20 30
      vertex 10 29 30
      vertex 9 20 30
    endloop
  endfacet
  facet normal 0 1 0
    outer loop
      vertex 0 29 30
      vertex 0 29 31
      vertex 9 29 30
    endloop
  endfacet
  facet normal 0 1 0
    outer loop
      vertex 9 29 30
      vertex 0 29 31
      vertex 9 29 31
    endloop
  endfacet
  facet normal 0 0 1
    outer loop
      vertex 0 29 31
      vertex 0 20 31
      vertex 9 20 31
    endloop
  endfacet
  facet normal 0 0 1
    outer loop
      vertex 9 29 31
      vertex 0 29 31
      vertex 9 20 31
    endloop
  endfacet
  facet normal 0 -1 0
    outer loop
      vertex 0 20 31
      vertex 0 20 30
      vertex 9 20 30
    endloop
  endfacet
  facet normal 0 -1 0
    outer loop
      vertex 9 20 31
      vertex 0 20 31
      vertex 9 20 30
    endloop
  endfacet
  facet normal 0 1 0
    outer loop
      vertex 0 19 30
      vertex 0 19 33
      vertex 9 19 30
    endloop
  endfacet
  facet normal 0 1 0
    outer loop
      vertex 9 19 30
      vertex 0 19 33
      vertex 9 19 33
    endloop
  endfacet
  facet normal 0 0 1
    outer loop
      vertex 0 19 33
      vertex 0 10 33
      vertex 9 10 33
    endloop
  endfacet
  facet normal 0 0 1
    outer loop
      vertex 9 19 33
      vertex 0 19 33
      vertex 9 10 33
    endloop
  endfacet
  facet normal 0 -1 0
    outer loop
      vertex 0 10 33
      vertex 0 10 30
      vertex 9 10 30
    endloop
  endfacet
  facet normal 0 -1 0
    outer loop
      vertex 9 10 33
      vertex 0 10 33
      vertex 9 10 30
    endloop
  endfacet
  facet normal 0 1 0
    outer loop
      vertex 0 9 30
      vertex 0 9 34
      vertex 9 9 30
    endloop
  endfacet
  facet normal 0 1 0
    outer loop
      vertex 9 9 30
      vertex 0 9 34
      vertex 9 9 34
    endloop
  endfacet
  facet normal 0 0 1
    outer loop
      vertex 0 9 34
      vertex 0 0 34
      vertex 9 0 34
    endloop
  endfacet
  facet normal 0 0 1
    outer loop
      vertex 9 9 34
      vertex 0 9 34
      vertex 9 0 34
    endloop
  endfacet
  facet normal 1 0 0
    outer loop
      vertex 9 0 34
      vertex 9 0 30
      vertex 9 9 30
    endloop
  endfacet
  facet normal 1 0 0
    outer loop
      vertex 9 9 34
      vertex 9 0 34
      vertex 9 9 30
    endloop
  endfacet
  facet normal -1 0 0
    outer loop
      vertex 10 0 30
      vertex 10 0 31
      vertex 10 9 30
    endloop
  endfacet
  facet normal -1 0 0
    outer loop
      vertex 10 9 30
      vertex 10 0 31
      vertex 10 9 31
    endloop
  endfacet
  facet normal 0 0 1
    outer loop
      vertex 10 9 31
      vertex 10 0 31
      vertex 19 0 31
    endloop
  endfacet
  facet normal 0 0 1
    outer loop
      vertex 19 9 31
      vertex 10 9 31
      vertex 19 0 31
    endloop
  endfacet
  facet normal 1 0 0
    outer loop
      vertex 19 0 31
      vertex 19 0 30
      vertex 19 9 30
    endloop
  endfacet
  facet normal 1 0 0
    outer loop
      vertex 19 9 31
      vertex 19 0 31
      vertex 19 9 30
    endloop
  endfacet
  facet normal -1 0 0
    outer loop
      vertex 20 0 30
      vertex 20 0 31
      vertex 20 9 30
    endloop
  endfacet
  facet normal -1 0 0
    outer loop
      vertex 20 9 30
      vertex 20 0 31
      vertex 20 9 31
    endloop
  endfacet
  facet normal 0 0 1
    outer loop
      vertex 20 9 31
      vertex 20 0 31
      vertex 29 0 31
    endloop
  endfacet
  facet normal 0 0 1
    outer loop
      vertex 29 9 31
      vertex 20 9 31
      vertex 29 0 31
    endloop
  endfacet
  facet normal 1 0 0
    outer loop
      vertex 29 0 31
      vertex 29 0 30
      vertex 29 9 30
    endloop
  endfacet
  facet normal 1 0 0
    outer loop
      vertex 29 9 31
      vertex 29 0 31
      vertex 29 9 30
    endloop
  endfacet
  facet normal 1 0 0
    outer loop
      vertex 30 0 30
      vertex 30 0 0
      vertex 30 30 0
    endloop
  endfacet
  facet normal 1 0 0
    outer loop
      vertex 30 30 30
      vertex 30 0 30
      vertex 30 30 0
    endloop
  endfacet
  facet normal -2.22045e-16 -1 1.22465e-16
    outer loop
      vertex 6.66134e-15 30 10
      vertex 6.66134e-15 30 1
      vertex 0.551532 30 1
    endloop
  endfacet
  facet normal -2.22045e-16 -1 1.22465e-16
    outer loop
      vertex 5.51532 30 10
      vertex 6.66134e-15 30 10
      vertex 0.551532 30 1
    endloop
  endfacet
  facet normal 2.71926e-32 1.22465e-16 1
    outer loop
      vertex 6.88338e-15 31 10
      vertex 6.66134e-15 30 10
      vertex 5.51532 30 10
    endloop
  endfacet
  facet normal 2.71926e-32 1.22465e-16 1
    outer loop
      vertex 9 31 10
      vertex 6.88338e-15 31 10
      vertex 9 30 10
    endloop
  endfacet
  facet normal 2.71926e-32 1.22465e-16 1
    outer loop
      vertex 9 30 10
      vertex 6.88338e-15 31 10
      vertex 5.51532 30 10
    endloop
  endfacet
  facet normal 1 -2.22045e-16 2.54072e-33
    outer loop
      vertex 9 31 10
      vertex 9 30 10
      vertex 9 30 1
    endloop
  endfacet
  facet normal 1 -2.22045e-16 2.54072e-33
    outer loop
      vertex 9 31 1
      vertex 9 31 10
      vertex 9 30 1
    endloop
  endfacet
  facet normal -2.71926e-32 -1.22465e-16 -1
    outer loop
      vertex 6.66134e-15 30 1
      vertex 6.88338e-15 31 1
      vertex 0.551532 30 1
    endloop
  endfacet
  facet normal -2.71926e-32 -1.22465e-16 -1
    outer loop
      vertex 0.551532 30 1
      vertex 6.88338e-15 31 1
      vertex 9 31 1
    endloop
  endfacet
  facet normal -2.71926e-32 -1.22465e-16 -1
    outer loop
      vertex 0.551532 30 1
      vertex 9 31 1
      vertex 9 30 1
    endloop
  endfacet
  facet normal -2.22045e-16 -1 1.22465e-16
    outer loop
      vertex 6.66134e-15 30 20
      vertex 6.66134e-15 30 11
      vertex 6.06685 30 11
    endloop
  endfacet
  facet normal -2.22045e-16 -1 1.22465e-16
    outer loop
      vertex 9 30 20
      vertex 6.66134e-15 30 20
      vertex 9 30 16.3182
    endloop
  endfacet
  facet normal -2.22045e-16 -1 1.22465e-16
    outer loop
      vertex 9 30 16.3182
      vertex 6.66134e-15 30 20
      vertex 6.06685 30 11
    endloop
  endfacet
  facet normal 1 -2.22045e-16 2.54072e-33
    outer loop
      vertex 9 30 20
      vertex 9 30 16.3182
      vertex 9 30 11
    endloop
  endfacet
  facet normal 1 -2.22045e-16 2.54072e-33
    outer loop
      vertex 9 36 20
      vertex 9 30 20
      vertex 9 36 11
    endloop
  endfacet
  facet normal 1 -2.22045e-16 2.54072e-33
    outer loop
      vertex 9 36 11
      vertex 9 30 20
      vertex 9 30 11
    endloop
  endfacet
  facet normal -2.71926e-32 -1.22465e-16 -1
    outer loop
      vertex 6.66134e-15 30 11
      vertex 7.99361e-15 36 11
      vertex 6.06685 30 11
    endloop
  endfacet
  facet normal -2.71926e-32 -1.22465e-16 -1
    outer loop
      vertex 6.06685 30 11
      vertex 7.99361e-15 36 11
      vertex 9 36 11
    endloop
  endfacet
  facet normal -2.71926e-32 -1.22465e-16 -1
    outer loop
      vertex 6.06685 30 11
      vertex 9 36 11
      vertex 9 30 11
    endloop
  endfacet
  facet normal -2.22045e-16 -1 1.22465e-16
    outer loop
      vertex 10 30 20
      vertex 10 30 18.1313
      vertex 11.0306 30 20
    endloop
  endfacet
  facet normal -1 2.22045e-16 -2.54072e-33
    outer loop
      vertex 10 30 18.1313
      vertex 10 30 20
      vertex 10 30 11
    endloop
  endfacet
  facet normal -1 2.22045e-16 -2.54072e-33
    outer loop
      vertex 10 30 11
      vertex 10 30 20
      vertex 10 32 20
    endloop
  endfacet
  facet normal -1 2.22045e-16 -2.54072e-33
    outer loop
      vertex 10 30 11
      vertex 10 32 20
      vertex 10 32 11
    endloop
  endfacet
  facet normal 2.71926e-32 1.22465e-16 1
    outer loop
      vertex 10 32 20
      vertex 10 30 20
      vertex 11.0306 30 20
    endloop
  endfacet
  facet normal 2.71926e-32 1.22465e-16 1
    outer loop
      vertex 19 32 20
      vertex 10 32 20
      vertex 19 30 20
    endloop
  endfacet
  facet normal 2.71926e-32 1.22465e-16 1
    outer loop
      vertex 19 30 20
      vertex 10 32 20
      vertex 11.0306 30 20
    endloop
  endfacet
  facet normal 1 -2.22045e-16 2.54072e-33
    outer loop
      vertex 19 32 20
      vertex 19 30 20
      vertex 19 30 11
    endloop
  endfacet
  facet normal 1 -2.22045e-16 2.54072e-33
    outer loop
      vertex 19 32 11
      vertex 19 32 20
      vertex 19 30 11
    endloop
  endfacet
  facet normal -2.71926e-32 -1.22465e-16 -1
    outer loop
      vertex 10 30 11
      vertex 10 32 11
      vertex 19 30 11
    endloop
  endfacet
  facet normal -2.71926e-32 -1.22465e-16 -1
    outer loop
      vertex 19 30 11
      vertex 10 32 11
      vertex 19 32 11
    endloop
  endfacet
  facet normal 2.71926e-32 1.22465e-16 1
    outer loop
      vertex 10 33 10
      vertex 10 30 10
      vertex 19 30 10
    endloop
  endfacet
  facet normal 2.71926e-32 1.22465e-16 1
    outer loop
      vertex 19 33 10
      vertex 10 33 10
      vertex 19 30 10
    endloop
  endfacet
  facet normal -1 2.22045e-16 -2.54072e-33
    outer loop
      vertex 10 30 10
      vertex 10 33 10
      vertex 10 30 1
    endloop
  endfacet
  facet normal -1 2.22045e-16 -2.54072e-33
    outer loop
      vertex 10 30 1
      vertex 10 33 10
      vertex 10 33 1
    endloop
  endfacet
  facet normal 1 -2.22045e-16 2.54072e-33
    outer loop
      vertex 19 33 10
      vertex 19 30 10
      vertex 19 30 1
    endloop
  endfacet
  facet normal 1 -2.22045e-16 2.54072e-33
    outer loop
      vertex 19 33 1
      vertex 19 33 10
      vertex 19 30 1
    endloop
  endfacet
  facet normal -2.71926e-32 -1.22465e-16 -1
    outer loop
      vertex 10 30 1
      vertex 10 33 1
      vertex 19 30 1
    endloop
  endfacet
  facet normal -2.71926e-32 -1.22465e-16 -1
    outer loop
      vertex 19 30 1
      vertex 10 33 1
      vertex 19 33 1
    endloop
  endfacet
  facet normal -2.22045e-16 -1 1.22465e-16
    outer loop
      vertex 10 30 30
      vertex 10 30 21
      vertex 11.5822 30 21
    endloop
  endfacet
  facet normal -2.22045e-16 -1 1.22465e-16
    outer loop
      vertex 16.546 30 30
      vertex 10 30 30
      vertex 11.5822 30 21
    endloop
  endfacet
  facet normal 2.71926e-32 1.22465e-16 1
    outer loop
      vertex 10 58 30
      vertex 10 30 30
      vertex 16.546 30 30
    endloop
  endfacet
  facet normal 2.71926e-32 1.22465e-16 1
    outer loop
      vertex 19 58 30
      vertex 10 58 30
      vertex 19 30 30
    endloop
  endfacet
  facet normal 2.71926e-32 1.22465e-16 1
    outer loop
      vertex 19 30 30
      vertex 10 58 30
      vertex 16.546 30 30
    endloop
  endfacet
  facet normal 1 -2.22045e-16 2.54072e-33
    outer loop
      vertex 19 58 30
      vertex 19 30 30
      vertex 19 30 21
    endloop
  endfacet
  facet normal 1 -2.22045e-16 2.54072e-33
    outer loop
      vertex 19 58 21
      vertex 19 58 30
      vertex 19 30 21
    endloop
  endfacet
  facet normal -2.71926e-32 -1.22465e-16 -1
    outer loop
      vertex 10 30 21
      vertex 10 58 21
      vertex 11.5822 30 21
    endloop
  endfacet
  facet normal -2.71926e-32 -1.22465e-16 -1
    outer loop
      vertex 11.5822 30 21
      vertex 10 58 21
      vertex 19 58 21
    endloop
  endfacet
  facet normal -2.71926e-32 -1.22465e-16 -1
    outer loop
      vertex 11.5822 30 21
      vertex 19 58 21
      vertex 19 30 21
    endloop
  endfacet
  facet normal 2.71926e-32 1.22465e-16 1
    outer loop
      vertex 20 55 30
      vertex 20 30 30
      vertex 29 30 30
    endloop
  endfacet
  facet normal 2.71926e-32 1.22465e-16 1
    outer loop
      vertex 29 55 30
      vertex 20 55 30
      vertex 29 30 30
    endloop
  endfacet
  facet normal -1 2.22045e-16 -2.54072e-33
    outer loop
      vertex 20 30 30
      vertex 20 55 30
      vertex 20 30 21
    endloop
  endfacet
  facet normal -1 2.22045e-16 -2.54072e-33
    outer loop
      vertex 20 30 21
      vertex 20 55 30
      vertex 20 55 21
    endloop
  endfacet
  facet normal 1 -2.22045e-16 2.54072e-33
    outer loop
      vertex 29 55 30
      vertex 29 30 30
      vertex 29 30 21
    endloop
  endfacet
  facet normal 1 -2.22045e-16 2.54072e-33
    outer loop
      vertex 29 55 21
      vertex 29 55 30
      vertex 29 30 21
    endloop
  endfacet
  facet normal -2.71926e-32 -1.22465e-16 -1
    outer loop
      vertex 20 30 21
      vertex 20 55 21
      vertex 29 30 21
    endloop
  endfacet
  facet normal -2.71926e-32 -1.22465e-16 -1
    outer loop
      vertex 29 30 21
      vertex 20 55 21
      vertex 29 55 21
    endloop
  endfacet
  facet normal 2.71926e-32 1.22465e-16 1
    outer loop
      vertex 20 36 20
      vertex 20 30 20
      vertex 29 30 20
    endloop
  endfacet
  facet normal 2.71926e-32 1.22465e-16 1
    outer loop
      vertex 29 36 20
      vertex 20 36 20
      vertex 29 30 20
    endloop
  endfacet
  facet normal -1 2.22045e-16 -2.54072e-33
    outer loop
      vertex 20 30 20
      vertex 20 36 20
      vertex 20 30 11
    endloop
  endfacet
  facet normal -1 2.22045e-16 -2.54072e-33
    outer loop
      vertex 20 30 11
      vertex 20 36 20
      vertex 20 36 11
    endloop
  endfacet
  facet normal 1 -2.22045e-16 2.54072e-33
    outer loop
      vertex 29 36 20
      vertex 29 30 20
      vertex 29 30 11
    endloop
  endfacet
  facet normal 1 -2.22045e-16 2.54072e-33
    outer loop
      vertex 29 36 11
      vertex 29 36 20
      vertex 29 30 11
    endloop
  endfacet
  facet normal -2.71926e-32 -1.22465e-16 -1
    outer loop
      vertex 20 30 11
      vertex 20 36 11
      vertex 29 30 11
    endloop
  endfacet
  facet normal -2.71926e-32 -1.22465e-16 -1
    outer loop
      vertex 29 30 11
      vertex 20 36 11
      vertex 29 36 11
    endloop
  endfacet
  facet normal 2.71926e-32 1.22465e-16 1
    outer loop
      vertex 20 33 10
      vertex 20 30 10
      vertex 29 30 10
    endloop
  endfacet
  facet normal 2.71926e-32 1.22465e-16 1
    outer loop
      vertex 29 33 10
      vertex 20 33 10
      vertex 29 30 10
    endloop
  endfacet
  facet normal -1 2.22045e-16 -2.54072e-33
    outer loop
      vertex 20 30 10
      vertex 20 33 10
      vertex 20 30 1
    endloop
  endfacet
  facet normal -1 2.22045e-16 -2.54072e-33
    outer loop
      vertex 20 30 1
      vertex 20 33 10
      vertex 20 33 1
    endloop
  endfacet
  facet normal 1 -2.22045e-16 2.54072e-33
    outer loop
      vertex 29 33 10
      vertex 29 30 10
      vertex 29 30 1
    endloop
  endfacet
  facet normal 1 -2.22045e-16 2.54072e-33
    outer loop
      vertex 29 33 1
      vertex 29 33 10
      vertex 29 30 1
    endloop
  endfacet
  facet normal -2.71926e-32 -1.22465e-16 -1
    outer loop
      vertex 20 30 1
      vertex 20 33 1
      vertex 29 30 1
    endloop
  endfacet
  facet normal -2.71926e-32 -1.22465e-16 -1
    outer loop
      vertex 29 30 1
      vertex 20 33 1
      vertex 29 33 1
    endloop
  endfacet
  facet normal 1 0 0
    outer loop
      vertex 9 10 33
      vertex 9 10 30
      vertex 9 19 30
    endloop
  endfacet
  facet normal 1 0 0
    outer loop
      vertex 9 19 33
      vertex 9 10 33
      vertex 9 19 30
    endloop
  endfacet
  facet normal 1 0 0
    outer loop
      vertex 9 20 31
      vertex 9 20 30
      vertex 9 29 30
    endloop
  endfacet
  facet normal 1 0 0
    outer loop
      vertex 9 29 31
      vertex 9 20 31
      vertex 9 29 30
    endloop
  endfacet
  facet normal 0 1 0
    outer loop
      vertex 20 9 30
      vertex 20 9 31
      vertex 29 9 30
    endloop
  endfacet
  facet normal 0 1 0
    outer loop
      vertex 29 9 30
      vertex 20 9 31
      vertex 29 9 31
    endloop
  endfacet
  facet normal 0 1 0
    outer loop
      vertex 10 9 30
      vertex 10 9 31
      vertex 19 9 30
    endloop
  endfacet
  facet normal 0 1 0
    outer loop
      vertex 19 9 30
      vertex 10 9 31
      vertex 19 9 31
    endloop
  endfacet
  facet normal -1 0 0
    outer loop
      vertex 10 20 30
      vertex 10 20 35
      vertex 10 29 30
    endloop
  endfacet
  facet normal -1 0 0
    outer loop
      vertex 10 29 30
      vertex 10 20 35
      vertex 10 29 35
    endloop
  endfacet
  facet normal 0 -1 0
    outer loop
      vertex 10 20 35
      vertex 10 20 30
      vertex 19 20 30
    endloop
  endfacet
  facet normal 0 -1 0
    outer loop
      vertex 19 20 35
      vertex 10 20 35
      vertex 19 20 30
    endloop
  endfacet
  facet normal 1 0 0
    outer loop
      vertex 19 20 35
      vertex 19 20 30
      vertex 19 29 30
    endloop
  endfacet
  facet normal 1 0 0
    outer loop
      vertex 19 29 35
      vertex 19 20 35
      vertex 19 29 30
    endloop
  endfacet
  facet normal 0 1 0
    outer loop
      vertex 10 29 30
      vertex 10 29 35
      vertex 19 29 30
    endloop
  endfacet
  facet normal 0 1 0
    outer loop
      vertex 19 29 30
      vertex 10 29 35
      vertex 19 29 35
    endloop
  endfacet
  facet normal -1 0 0
    outer loop
      vertex 20 10 30
      vertex 20 10 50
      vertex 20 19 30
    endloop
  endfacet
  facet normal -1 0 0
    outer loop
      vertex 20 19 30
      vertex 20 10 50
      vertex 20 19 50
    endloop
  endfacet
  facet normal 0 -1 0
    outer loop
      vertex 20 10 50
      vertex 20 10 30
      vertex 29 10 30
    endloop
  endfacet
  facet normal 0 -1 0
    outer loop
      vertex 29 10 50
      vertex 20 10 50
      vertex 29 10 30
    endloop
  endfacet
  facet normal 1 0 0
    outer loop
      vertex 29 10 50
      vertex 29 10 30
      vertex 29 19 30
    endloop
  endfacet
  facet normal 1 0 0
    outer loop
      vertex 29 19 50
      vertex 29 10 50
      vertex 29 19 30
    endloop
  endfacet
  facet normal 0 1 0
    outer loop
      vertex 20 19 30
      vertex 20 19 50
      vertex 29 19 30
    endloop
  endfacet
  facet normal 0 1 0
    outer loop
      vertex 29 19 30
      vertex 20 19 50
      vertex 29 19 50
    endloop
  endfacet
  facet normal -1 0 0
    outer loop
      vertex 20 20 30
      vertex 20 20 33
      vertex 20 29 30
    endloop
  endfacet
  facet normal -1 0 0
    outer loop
      vertex 20 29 30
      vertex 20 20 33
      vertex 20 29 33
    endloop
  endfacet
  facet normal 0 -1 0
    outer loop
      vertex 20 20 33
      vertex 20 20 30
      vertex 29 20 30
    endloop
  endfacet
  facet normal 0 -1 0
    outer loop
      vertex 29 20 33
      vertex 20 20 33
      vertex 29 20 30
    endloop
  endfacet
  facet normal 1 0 0
    outer loop
      vertex 29 20 33
      vertex 29 20 30
      vertex 29 29 30
    endloop
  endfacet
  facet normal 1 0 0
    outer loop
      vertex 29 29 33
      vertex 29 20 33
      vertex 29 29 30
    endloop
  endfacet
  facet normal 0 1 0
    outer loop
      vertex 20 29 30
      vertex 20 29 33
      vertex 29 29 30
    endloop
  endfacet
  facet normal 0 1 0
    outer loop
      vertex 29 29 30
      vertex 20 29 33
      vertex 29 29 33
    endloop
  endfacet
  facet normal -1 2.22045e-16 -2.54072e-33
    outer loop
      vertex 6.66134e-15 30 1
      vertex 6.66134e-15 30 10
      vertex 6.88338e-15 31 1
    endloop
  endfacet
  facet normal -1 2.22045e-16 -2.54072e-33
    outer loop
      vertex 6.88338e-15 31 1
      vertex 6.66134e-15 30 10
      vertex 6.88338e-15 31 10
    endloop
  endfacet
  facet normal 2.22045e-16 1 -1.22465e-16
    outer loop
      vertex 6.88338e-15 31 1
      vertex 6.88338e-15 31 10
      vertex 9 31 1
    endloop
  endfacet
  facet normal 2.22045e-16 1 -1.22465e-16
    outer loop
      vertex 9 31 1
      vertex 6.88338e-15 31 10
      vertex 9 31 10
    endloop
  endfacet
  facet normal -1 2.22045e-16 -2.54072e-33
    outer loop
      vertex 6.66134e-15 30 11
      vertex 6.66134e-15 30 20
      vertex 7.99361e-15 36 11
    endloop
  endfacet
  facet normal -1 2.22045e-16 -2.54072e-33
    outer loop
      vertex 7.99361e-15 36 11
      vertex 6.66134e-15 30 20
      vertex 7.99361e-15 36 20
    endloop
  endfacet
  facet normal 2.71926e-32 1.22465e-16 1
    outer loop
      vertex 7.99361e-15 36 20
      vertex 6.66134e-15 30 20
      vertex 9 30 20
    endloop
  endfacet
  facet normal 2.71926e-32 1.22465e-16 1
    outer loop
      vertex 9 36 20
      vertex 7.99361e-15 36 20
      vertex 9 30 20
    endloop
  endfacet
  facet normal 2.22045e-16 1 -1.22465e-16
    outer loop
      vertex 7.99361e-15 36 11
      vertex 7.99361e-15 36 20
      vertex 9 36 11
    endloop
  endfacet
  facet normal 2.22045e-16 1 -1.22465e-16
    outer loop
      vertex 9 36 11
      vertex 7.99361e-15 36 20
      vertex 9 36 20
    endloop
  endfacet
  facet normal 2.22045e-16 1 -1.22465e-16
    outer loop
      vertex 10 32 11
      vertex 10 32 20
      vertex 19 32 11
    endloop
  endfacet
  facet normal 2.22045e-16 1 -1.22465e-16
    outer loop
      vertex 19 32 11
      vertex 10 32 20
      vertex 19 32 20
    endloop
  endfacet
  facet normal 2.22045e-16 1 -1.22465e-16
    outer loop
      vertex 10 33 1
      vertex 10 33 10
      vertex 19 33 1
    endloop
  endfacet
  facet normal 2.22045e-16 1 -1.22465e-16
    outer loop
      vertex 19 33 1
      vertex 10 33 10
      vertex 19 33 10
    endloop
  endfacet
  facet normal -1 2.22045e-16 -2.54072e-33
    outer loop
      vertex 10 30 21
      vertex 10 30 30
      vertex 10 58 21
    endloop
  endfacet
  facet normal -1 2.22045e-16 -2.54072e-33
    outer loop
      vertex 10 58 21
      vertex 10 30 30
      vertex 10 58 30
    endloop
  endfacet
  facet normal 2.22045e-16 1 -1.22465e-16
    outer loop
      vertex 10 58 21
      vertex 10 58 30
      vertex 19 58 21
    endloop
  endfacet
  facet normal 2.22045e-16 1 -1.22465e-16
    outer loop
      vertex 19 58 21
      vertex 10 58 30
      vertex 19 58 30
    endloop
  endfacet
  facet normal 2.22045e-16 1 -1.22465e-16
    outer loop
      vertex 20 55 21
      vertex 20 55 30
      vertex 29 55 21
    endloop
  endfacet
  facet normal 2.22045e-16 1 -1.22465e-16
    outer loop
      vertex 29 55 21
      vertex 20 55 30
      vertex 29 55 30
    endloop
  endfacet
  facet normal 2.22045e-16 1 -1.22465e-16
    outer loop
      vertex 20 36 11
      vertex 20 36 20
      vertex 29 36 11
    endloop
  endfacet
  facet normal 2.22045e-16 1 -1.22465e-16
    outer loop
      vertex 29 36 11
      vertex 20 36 20
      vertex 29 36 20
    endloop
  endfacet
  facet normal 2.22045e-16 1 -1.22465e-16
    outer loop
      vertex 20 33 1
      vertex 20 33 10
      vertex 29 33 1
    endloop
  endfacet
  facet normal 2.22045e-16 1 -1.22465e-16
    outer loop
      vertex 29 33 1
      vertex 20 33 10
      vertex 29 33 10
    endloop
  endfacet
  facet normal 0 0 1
    outer loop
      vertex 10 29 35
      vertex 10 20 35
      vertex 19 20 35
    endloop
  endfacet
  facet normal 0 0 1
    outer loop
      vertex 19 29 35
      vertex 10 29 35
      vertex 19 20 35
    endloop
  endfacet
  facet normal 0 0 1
    outer loop
      vertex 20 19 50
      vertex 20 10 50
      vertex 29 10 50
    endloop
  endfacet
  facet normal 0 0 1
    outer loop
      vertex 29 19 50
      vertex 20 19 50
      vertex 29 10 50
    endloop
  endfacet
  facet normal 0 0 1
    outer loop
      vertex 20 29 33
      vertex 20 20 33
      vertex 29 20 33
    endloop
  endfacet
  facet normal 0 0 1
    outer loop
      vertex 29 29 33
      vertex 20 29 33
      vertex 29 20 33
    endloop
  endfacet
  facet normal -1 0 -1.22465e-16
    outer loop
      vertex -7 0 10
      vertex -7 9 10
      vertex -7 0 1
    endloop
  endfacet
  facet normal -1 0 -1.22465e-16
    outer loop
      vertex -7 0 1
      vertex -7 9 10
      vertex -7 9 1
    endloop
  endfacet
  facet normal -1.22465e-16 0 1
    outer loop
      vertex -7 9 10
      vertex -7 0 10
      vertex -1.22465e-15 0 10
    endloop
  endfacet
  facet normal -1.22465e-16 0 1
    outer loop
      vertex -1.22465e-15 9 10
      vertex -7 9 10
      vertex -1.22465e-15 0 10
    endloop
  endfacet
  facet normal 0 -1 0
    outer loop
      vertex -1.22465e-15 0 10
      vertex -7 0 10
      vertex -7 0 1
    endloop
  endfacet
  facet normal 0 -1 0
    outer loop
      vertex -1.22465e-16 0 1
      vertex -1.22465e-15 0 10
      vertex -7 0 1
    endloop
  endfacet
  facet normal 1.22465e-16 0 -1
    outer loop
      vertex -7 0 1
      vertex -7 9 1
      vertex -1.22465e-16 0 1
    endloop
  endfacet
  facet normal 1.22465e-16 0 -1
    outer loop
      vertex -1.22465e-16 0 1
      vertex -7 9 1
      vertex -1.22465e-16 9 1
    endloop
  endfacet
  facet normal 0 1 0
    outer loop
      vertex -7 9 10
      vertex -1.22465e-15 9 10
      vertex -7 9 1
    endloop
  endfacet
  facet normal 0 1 0
    outer loop
      vertex -7 9 1
      vertex -1.22465e-15 9 10
      vertex -1.22465e-16 9 1
    endloop
  endfacet
  facet normal 1 0 1.22465e-16
    outer loop
      vertex -1.22465e-15 9 10
      vertex -1.22465e-15 0 10
      vertex -1.22465e-16 0 1
    endloop
  endfacet
  facet normal 1 0 1.22465e-16
    outer loop
      vertex -1.22465e-16 9 1
      vertex -1.22465e-15 9 10
      vertex -1.22465e-16 0 1
    endloop
  endfacet
  facet normal -1 0 -1.22465e-16
    outer loop
      vertex -50 10 10
      vertex -50 19 10
      vertex -50 10 1
    endloop
  endfacet
  facet normal -1 0 -1.22465e-16
    outer loop
      vertex -50 10 1
      vertex -50 19 10
      vertex -50 19 1
    endloop
  endfacet
  facet normal -1.22465e-16 0 1
    outer loop
      vertex -50 19 10
      vertex -50 10 10
      vertex -1.22465e-15 10 10
    endloop
  endfacet
  facet normal -1.22465e-16 0 1
    outer loop
      vertex -1.22465e-15 19 10
      vertex -50 19 10
      vertex -1.22465e-15 10 10
    endloop
  endfacet
  facet normal 0 -1 0
    outer loop
      vertex -1.22465e-15 10 10
      vertex -50 10 10
      vertex -50 10 1
    endloop
  endfacet
  facet normal 0 -1 0
    outer loop
      vertex -1.22465e-16 10 1
      vertex -1.22465e-15 10 10
      vertex -50 10 1
    endloop
  endfacet
  facet normal 1.22465e-16 0 -1
    outer loop
      vertex -50 10 1
      vertex -50 19 1
      vertex -1.22465e-16 10 1
    endloop
  endfacet
  facet normal 1.22465e-16 0 -1
    outer loop
      vertex -1.22465e-16 10 1
      vertex -50 19 1
      vertex -1.22465e-16 19 1
    endloop
  endfacet
  facet normal 0 1 0
    outer loop
      vertex -50 19 10
      vertex -1.22465e-15 19 10
      vertex -50 19 1
    endloop
  endfacet
  facet normal 0 1 0
    outer loop
      vertex -50 19 1
      vertex -1.22465e-15 19 10
      vertex -1.22465e-16 19 1
    endloop
  endfacet
  facet normal 1 0 1.22465e-16
    outer loop
      vertex -1.22465e-15 19 10
      vertex -1.22465e-15 10 10
      vertex -1.22465e-16 10 1
    endloop
  endfacet
  facet normal 1 0 1.22465e-16
    outer loop
      vertex -1.22465e-16 19 1
      vertex -1.22465e-15 19 10
      vertex -1.22465e-16 10 1
    endloop
  endfacet
  facet normal -1 0 -1.22465e-16
    outer loop
      vertex -9 20 10
      vertex -9 29 10
      vertex -9 20 1
    endloop
  endfacet
  facet normal -1 0 -1.22465e-16
    outer loop
      vertex -9 20 1
      vertex -9 29 10
      vertex -9 29 1
    endloop
  endfacet
  facet normal -1.22465e-16 0 1
    outer loop
      vertex -9 29 10
      vertex -9 20 10
      vertex -1.22465e-15 20 10
    endloop
  endfacet
  facet normal -1.22465e-16 0 1
    outer loop
      vertex -1.22465e-15 29 10
      vertex -9 29 10
      vertex -1.22465e-15 20 10
    endloop
  endfacet
  facet normal 0 -1 0
    outer loop
      vertex -1.22465e-15 20 10
      vertex -9 20 10
      vertex -9 20 1
    endloop
  endfacet
  facet normal 0 -1 0
    outer loop
      vertex -1.22465e-16 20 1
      vertex -1.22465e-15 20 10
      vertex -9 20 1
    endloop
  endfacet
  facet normal 1.22465e-16 0 -1
    outer loop
      vertex -9 20 1
      vertex -9 29 1
      vertex -1.22465e-16 20 1
    endloop
  endfacet
  facet normal 1.22465e-16 0 -1
    outer loop
      vertex -1.22465e-16 20 1
      vertex -9 29 1
      vertex -1.22465e-16 29 1
    endloop
  endfacet
  facet normal 0 1 0
    outer loop
      vertex -9 29 10
      vertex -1.22465e-15 29 10
      vertex -9 29 1
    endloop
  endfacet
  facet normal 0 1 0
    outer loop
      vertex -9 29 1
      vertex -1.22465e-15 29 10
      vertex -1.22465e-16 29 1
    endloop
  endfacet
  facet normal 1 0 1.22465e-16
    outer loop
      vertex -1.22465e-15 29 10
      vertex -1.22465e-15 20 10
      vertex -1.22465e-16 20 1
    endloop
  endfacet
  facet normal 1 0 1.22465e-16
    outer loop
      vertex -1.22465e-16 29 1
      vertex -1.22465e-15 29 10
      vertex -1.22465e-16 20 1
    endloop
  endfacet
  facet normal -1 0 -1.22465e-16
    outer loop
      vertex -3 0 20
      vertex -3 9 20
      vertex -3 0 11
    endloop
  endfacet
  facet normal -1 0 -1.22465e-16
    outer loop
      vertex -3 0 11
      vertex -3 9 20
      vertex -3 9 11
    endloop
  endfacet
  facet normal -1.22465e-16 0 1
    outer loop
      vertex -3 9 20
      vertex -3 0 20
      vertex -2.44929e-15 0 20
    endloop
  endfacet
  facet normal -1.22465e-16 0 1
    outer loop
      vertex -2.44929e-15 9 20
      vertex -3 9 20
      vertex -2.44929e-15 0 20
    endloop
  endfacet
  facet normal 0 -1 0
    outer loop
      vertex -2.44929e-15 0 20
      vertex -3 0 20
      vertex -3 0 11
    endloop
  endfacet
  facet normal 0 -1 0
    outer loop
      vertex -1.34711e-15 0 11
      vertex -2.44929e-15 0 20
      vertex -3 0 11
    endloop
  endfacet
  facet normal 1.22465e-16 0 -1
    outer loop
      vertex -3 0 11
      vertex -3 9 11
      vertex -1.34711e-15 0 11
    endloop
  endfacet
  facet normal 1.22465e-16 0 -1
    outer loop
      vertex -1.34711e-15 0 11
      vertex -3 9 11
      vertex -1.34711e-15 9 11
    endloop
  endfacet
  facet normal 0 1 0
    outer loop
      vertex -3 9 20
      vertex -2.44929e-15 9 20
      vertex -3 9 11
    endloop
  endfacet
  facet normal 0 1 0
    outer loop
      vertex -3 9 11
      vertex -2.44929e-15 9 20
      vertex -1.34711e-15 9 11
    endloop
  endfacet
  facet normal 1 0 1.22465e-16
    outer loop
      vertex -2.44929e-15 9 20
      vertex -2.44929e-15 0 20
      vertex -1.34711e-15 0 11
    endloop
  endfacet
  facet normal 1 0 1.22465e-16
    outer loop
      vertex -1.34711e-15 9 11
      vertex -2.44929e-15 9 20
      vertex -1.34711e-15 0 11
    endloop
  endfacet
  facet normal -1 0 -1.22465e-16
    outer loop
      vertex -50 10 20
      vertex -50 19 20
      vertex -50 10 11
    endloop
  endfacet
  facet normal -1 0 -1.22465e-16
    outer loop
      vertex -50 10 11
      vertex -50 19 20
      vertex -50 19 11
    endloop
  endfacet
  facet normal -1.22465e-16 0 1
    outer loop
      vertex -50 19 20
      vertex -50 10 20
      vertex -2.44929e-15 10 20
    endloop
  endfacet
  facet normal -1.22465e-16 0 1
    outer loop
      vertex -2.44929e-15 19 20
      vertex -50 19 20
      vertex -2.44929e-15 10 20
    endloop
  endfacet
  facet normal 0 -1 0
    outer loop
      vertex -2.44929e-15 10 20
      vertex -50 10 20
      vertex -50 10 11
    endloop
  endfacet
  facet normal 0 -1 0
    outer loop
      vertex -1.34711e-15 10 11
      vertex -2.44929e-15 10 20
      vertex -50 10 11
    endloop
  endfacet
  facet normal 1.22465e-16 0 -1
    outer loop
      vertex -50 10 11
      vertex -50 19 11
      vertex -1.34711e-15 10 11
    endloop
  endfacet
  facet normal 1.22465e-16 0 -1
    outer loop
      vertex -1.34711e-15 10 11
      vertex -50 19 11
      vertex -1.34711e-15 19 11
    endloop
  endfacet
  facet normal 0 1 0
    outer loop
      vertex -50 19 20
      vertex -2.44929e-15 19 20
      vertex -50 19 11
    endloop
  endfacet
  facet normal 0 1 0
    outer loop
      vertex -50 19 11
      vertex -2.44929e-15 19 20
      vertex -1.34711e-15 19 11
    endloop
  endfacet
  facet normal 1 0 1.22465e-16
    outer loop
      vertex -2.44929e-15 19 20
      vertex -2.44929e-15 10 20
      vertex -1.34711e-15 10 11
    endloop
  endfacet
  facet normal 1 0 1.22465e-16
    outer loop
      vertex -1.34711e-15 19 11
      vertex -2.44929e-15 19 20
      vertex -1.34711e-15 10 11
    endloop
  endfacet
  facet normal -1 0 -1.22465e-16
    outer loop
      vertex -1 20 20
      vertex -1 29 20
      vertex -1 20 11
    endloop
  endfacet
  facet normal -1 0 -1.22465e-16
    outer loop
      vertex -1 20 11
      vertex -1 29 20
      vertex -1 29 11
    endloop
  endfacet
  facet normal -1.22465e-16 0 1
    outer loop
      vertex -1 29 20
      vertex -1 20 20
      vertex -2.44929e-15 20 20
    endloop
  endfacet
  facet normal -1.22465e-16 0 1
    outer loop
      vertex -2.44929e-15 29 20
      vertex -1 29 20
      vertex -2.44929e-15 20 20
    endloop
  endfacet
  facet normal 0 -1 0
    outer loop
      vertex -2.44929e-15 20 20
      vertex -1 20 20
      vertex -1 20 11
    endloop
  endfacet
  facet normal 0 -1 0
    outer loop
      vertex -1.34711e-15 20 11
      vertex -2.44929e-15 20 20
      vertex -1 20 11
    endloop
  endfacet
  facet normal 1.22465e-16 0 -1
    outer loop
      vertex -1 20 11
      vertex -1 29 11
      vertex -1.34711e-15 20 11
    endloop
  endfacet
  facet normal 1.22465e-16 0 -1
    outer loop
      vertex -1.34711e-15 20 11
      vertex -1 29 11
      vertex -1.34711e-15 29 11
    endloop
  endfacet
  facet normal 0 1 0
    outer loop
      vertex -1 29 20
      vertex -2.44929e-15 29 20
      vertex -1 29 11
    endloop
  endfacet
  facet normal 0 1 0
    outer loop
      vertex -1 29 11
      vertex -2.44929e-15 29 20
      vertex -1.34711e-15 29 11
    endloop
  endfacet
  facet normal 1 0 1.22465e-16
    outer loop
      vertex -2.44929e-15 29 20
      vertex -2.44929e-15 20 20
      vertex -1.34711e-15 20 11
    endloop
  endfacet
  facet normal 1 0 1.22465e-16
    outer loop
      vertex -1.34711e-15 29 11
      vertex -2.44929e-15 29 20
      vertex -1.34711e-15 20 11
    endloop
  endfacet
  facet normal -1 0 -1.22465e-16
    outer loop
      vertex -3 0 30
      vertex -3 9 30
      vertex -3 0 21
    endloop
  endfacet
  facet normal -1 0 -1.22465e-16
    outer loop
      vertex -3 0 21
      vertex -3 9 30
      vertex -3 9 21
    endloop
  endfacet
  facet normal -1.22465e-16 0 1
    outer loop
      vertex -3 9 30
      vertex -3 0 30
      vertex -3.67394e-15 0 30
    endloop
  endfacet
  facet normal -1.22465e-16 0 1
    outer loop
      vertex -3.67394e-15 9 30
      vertex -3 9 30
      vertex -3.67394e-15 0 30
    endloop
  endfacet
  facet normal 0 -1 0
    outer loop
      vertex -3.67394e-15 0 30
      vertex -3 0 30
      vertex -3 0 21
    endloop
  endfacet
  facet normal 0 -1 0
    outer loop
      vertex -2.57176e-15 0 21
      vertex -3.67394e-15 0 30
      vertex -3 0 21
    endloop
  endfacet
  facet normal 1.22465e-16 0 -1
    outer loop
      vertex -3 0 21
      vertex -3 9 21
      vertex -2.57176e-15 0 21
    endloop
  endfacet
  facet normal 1.22465e-16 0 -1
    outer loop
      vertex -2.57176e-15 0 21
      vertex -3 9 21
      vertex -2.57176e-15 9 21
    endloop
  endfacet
  facet normal 0 1 0
    outer loop
      vertex -3 9 30
      vertex -3.67394e-15 9 30
      vertex -3 9 21
    endloop
  endfacet
  facet normal 0 1 0
    outer loop
      vertex -3 9 21
      vertex -3.67394e-15 9 30
      vertex -2.57176e-15 9 21
    endloop
  endfacet
  facet normal 1 0 1.22465e-16
    outer loop
      vertex -3.67394e-15 9 30
      vertex -3.67394e-15 0 30
      vertex -2.57176e-15 0 21
    endloop
  endfacet
  facet normal 1 0 1.22465e-16
    outer loop
      vertex -2.57176e-15 9 21
      vertex -3.67394e-15 9 30
      vertex -2.57176e-15 0 21
    endloop
  endfacet
  facet normal -1 0 -1.22465e-16
    outer loop
      vertex -50 10 30
      vertex -50 19 30
      vertex -50 10 21
    endloop
  endfacet
  facet normal -1 0 -1.22465e-16
    outer loop
      vertex -50 10 21
      vertex -50 19 30
      vertex -50 19 21
    endloop
  endfacet
  facet normal -1.22465e-16 0 1
    outer loop
      vertex -50 19 30
      vertex -50 10 30
      vertex -3.67394e-15 10 30
    endloop
  endfacet
  facet normal -1.22465e-16 0 1
    outer loop
      vertex -3.67394e-15 19 30
      vertex -50 19 30
      vertex -3.67394e-15 10 30
    endloop
  endfacet
  facet normal 0 -1 0
    outer loop
      vertex -3.67394e-15 10 30
      vertex -50 10 30
      vertex -50 10 21
    endloop
  endfacet
  facet normal 0 -1 0
    outer loop
      vertex -2.57176e-15 10 21
      vertex -3.67394e-15 10 30
      vertex -50 10 21
    endloop
  endfacet
  facet normal 1.22465e-16 0 -1
    outer loop
      vertex -50 10 21
      vertex -50 19 21
      vertex -2.57176e-15 10 21
    endloop
  endfacet
  facet normal 1.22465e-16 0 -1
    outer loop
      vertex -2.57176e-15 10 21
      vertex -50 19 21
      vertex -2.57176e-15 19 21
    endloop
  endfacet
  facet normal 0 1 0
    outer loop
      vertex -50 19 30
      vertex -3.67394e-15 19 30
      vertex -50 19 21
    endloop
  endfacet
  facet normal 0 1 0
    outer loop
      vertex -50 19 21
      vertex -3.67394e-15 19 30
      vertex -2.57176e-15 19 21
    endloop
  endfacet
  facet normal 1 0 1.22465e-16
    outer loop
      vertex -3.67394e-15 19 30
      vertex -3.67394e-15 10 30
      vertex -2.57176e-15 10 21
    endloop
  endfacet
  facet normal 1 0 1.22465e-16
    outer loop
      vertex -2.57176e-15 19 21
      vertex -3.67394e-15 19 30
      vertex -2.57176e-15 10 21
    endloop
  endfacet
  facet normal -1 2.22045e-16 2.54072e-33
    outer loop
      vertex 1 -7 10
      vertex 1 -1.44669e-15 10
      vertex 1 -7 1
    endloop
  endfacet
  facet normal -1 2.22045e-16 2.54072e-33
    outer loop
      vertex 1 -7 1
      vertex 1 -1.44669e-15 10
      vertex 1 -3.44509e-16 1
    endloop
  endfacet
  facet normal -2.71926e-32 -1.22465e-16 1
    outer loop
      vertex 1 -1.44669e-15 10
      vertex 1 -7 10
      vertex 10 -7 10
    endloop
  endfacet
  facet normal -2.71926e-32 -1.22465e-16 1
    outer loop
      vertex 10 -3.44509e-15 10
      vertex 1 -1.44669e-15 10
      vertex 10 -7 10
    endloop
  endfacet
  facet normal -2.22045e-16 -1 -1.22465e-16
    outer loop
      vertex 10 -7 10
      vertex 1 -7 10
      vertex 1 -7 1
    endloop
  endfacet
  facet normal -2.22045e-16 -1 -1.22465e-16
    outer loop
      vertex 10 -7 1
      vertex 10 -7 10
      vertex 1 -7 1
    endloop
  endfacet
  facet normal 2.71926e-32 1.22465e-16 -1
    outer loop
      vertex 1 -7 1
      vertex 1 -3.44509e-16 1
      vertex 10 -7 1
    endloop
  endfacet
  facet normal 2.71926e-32 1.22465e-16 -1
    outer loop
      vertex 10 -7 1
      vertex 1 -3.44509e-16 1
      vertex 10 -2.34291e-15 1
    endloop
  endfacet
  facet normal 2.22045e-16 1 1.22465e-16
    outer loop
      vertex 1 -1.44669e-15 10
      vertex 10 -3.44509e-15 10
      vertex 1 -3.44509e-16 1
    endloop
  endfacet
  facet normal 2.22045e-16 1 1.22465e-16
    outer loop
      vertex 1 -3.44509e-16 1
      vertex 10 -3.44509e-15 10
      vertex 10 -2.34291e-15 1
    endloop
  endfacet
  facet normal 1 -2.22045e-16 -2.54072e-33
    outer loop
      vertex 10 -3.44509e-15 10
      vertex 10 -7 10
      vertex 10 -7 1
    endloop
  endfacet
  facet normal 1 -2.22045e-16 -2.54072e-33
    outer loop
      vertex 10 -2.34291e-15 1
      vertex 10 -3.44509e-15 10
      vertex 10 -7 1
    endloop
  endfacet
  facet normal -1 2.22045e-16 2.54072e-33
    outer loop
      vertex 11 -6 10
      vertex 11 -3.66714e-15 10
      vertex 11 -6 1
    endloop
  endfacet
  facet normal -1 2.22045e-16 2.54072e-33
    outer loop
      vertex 11 -6 1
      vertex 11 -3.66714e-15 10
      vertex 11 -2.56496e-15 1
    endloop
  endfacet
  facet normal -2.71926e-32 -1.22465e-16 1
    outer loop
      vertex 11 -3.66714e-15 10
      vertex 11 -6 10
      vertex 20 -6 10
    endloop
  endfacet
  facet normal -2.71926e-32 -1.22465e-16 1
    outer loop
      vertex 20 -5.66554e-15 10
      vertex 11 -3.66714e-15 10
      vertex 20 -6 10
    endloop
  endfacet
  facet normal -2.22045e-16 -1 -1.22465e-16
    outer loop
      vertex 20 -6 10
      vertex 11 -6 10
      vertex 11 -6 1
    endloop
  endfacet
  facet normal -2.22045e-16 -1 -1.22465e-16
    outer loop
      vertex 20 -6 1
      vertex 20 -6 10
      vertex 11 -6 1
    endloop
  endfacet
  facet normal 2.71926e-32 1.22465e-16 -1
    outer loop
      vertex 11 -6 1
      vertex 11 -2.56496e-15 1
      vertex 20 -6 1
    endloop
  endfacet
  facet normal 2.71926e-32 1.22465e-16 -1
    outer loop
      vertex 20 -6 1
      vertex 11 -2.56496e-15 1
      vertex 20 -4.56336e-15 1
    endloop
  endfacet
  facet normal 2.22045e-16 1 1.22465e-16
    outer loop
      vertex 11 -3.66714e-15 10
      vertex 20 -5.66554e-15 10
      vertex 11 -2.56496e-15 1
    endloop
  endfacet
  facet normal 2.22045e-16 1 1.22465e-16
    outer loop
      vertex 11 -2.56496e-15 1
      vertex 20 -5.66554e-15 10
      vertex 20 -4.56336e-15 1
    endloop
  endfacet
  facet normal 1 -2.22045e-16 -2.54072e-33
    outer loop
      vertex 20 -5.66554e-15 10
      vertex 20 -6 10
      vertex 20 -6 1
    endloop
  endfacet
  facet normal 1 -2.22045e-16 -2.54072e-33
    outer loop
      vertex 20 -4.56336e-15 1
      vertex 20 -5.66554e-15 10
      vertex 20 -6 1
    endloop
  endfacet
  facet normal -1 2.22045e-16 2.54072e-33
    outer loop
      vertex 21 -3 10
      vertex 21 -5.88758e-15 10
      vertex 21 -3 1
    endloop
  endfacet
  facet normal -1 2.22045e-16 2.54072e-33
    outer loop
      vertex 21 -3 1
      vertex 21 -5.88758e-15 10
      vertex 21 -4.7854e-15 1
    endloop
  endfacet
  facet normal -2.71926e-32 -1.22465e-16 1
    outer loop
      vertex 21 -5.88758e-15 10
      vertex 21 -3 10
      vertex 30 -3 10
    endloop
  endfacet
  facet normal -2.71926e-32 -1.22465e-16 1
    outer loop
      vertex 30 -7.88598e-15 10
      vertex 21 -5.88758e-15 10
      vertex 30 -3 10
    endloop
  endfacet
  facet normal -2.22045e-16 -1 -1.22465e-16
    outer loop
      vertex 30 -3 10
      vertex 21 -3 10
      vertex 21 -3 1
    endloop
  endfacet
  facet normal -2.22045e-16 -1 -1.22465e-16
    outer loop
      vertex 30 -3 1
      vertex 30 -3 10
      vertex 21 -3 1
    endloop
  endfacet
  facet normal 2.71926e-32 1.22465e-16 -1
    outer loop
      vertex 21 -3 1
      vertex 21 -4.7854e-15 1
      vertex 30 -3 1
    endloop
  endfacet
  facet normal 2.71926e-32 1.22465e-16 -1
    outer loop
      vertex 30 -3 1
      vertex 21 -4.7854e-15 1
      vertex 30 -6.7838e-15 1
    endloop
  endfacet
  facet normal 2.22045e-16 1 1.22465e-16
    outer loop
      vertex 21 -5.88758e-15 10
      vertex 30 -7.88598e-15 10
      vertex 21 -4.7854e-15 1
    endloop
  endfacet
  facet normal 2.22045e-16 1 1.22465e-16
    outer loop
      vertex 21 -4.7854e-15 1
      vertex 30 -7.88598e-15 10
      vertex 30 -6.7838e-15 1
    endloop
  endfacet
  facet normal 1 -2.22045e-16 -2.54072e-33
    outer loop
      vertex 30 -7.88598e-15 10
      vertex 30 -3 10
      vertex 30 -3 1
    endloop
  endfacet
  facet normal 1 -2.22045e-16 -2.54072e-33
    outer loop
      vertex 30 -6.7838e-15 1
      vertex 30 -7.88598e-15 10
      vertex 30 -3 1
    endloop
  endfacet
  facet normal -1 2.22045e-16 2.54072e-33
    outer loop
      vertex 1 -3 20
      vertex 1 -2.67134e-15 20
      vertex 1 -3 11
    endloop
  endfacet
  facet normal -1 2.22045e-16 2.54072e-33
    outer loop
      vertex 1 -3 11
      vertex 1 -2.67134e-15 20
      vertex 1 -1.56916e-15 11
    endloop
  endfacet
  facet normal -2.71926e-32 -1.22465e-16 1
    outer loop
      vertex 1 -2.67134e-15 20
      vertex 1 -3 20
      vertex 10 -3 20
    endloop
  endfacet
  facet normal -2.71926e-32 -1.22465e-16 1
    outer loop
      vertex 10 -4.66974e-15 20
      vertex 1 -2.67134e-15 20
      vertex 10 -3 20
    endloop
  endfacet
  facet normal -2.22045e-16 -1 -1.22465e-16
    outer loop
      vertex 10 -3 20
      vertex 1 -3 20
      vertex 1 -3 11
    endloop
  endfacet
  facet normal -2.22045e-16 -1 -1.22465e-16
    outer loop
      vertex 10 -3 11
      vertex 10 -3 20
      vertex 1 -3 11
    endloop
  endfacet
  facet normal 2.71926e-32 1.22465e-16 -1
    outer loop
      vertex 1 -3 11
      vertex 1 -1.56916e-15 11
      vertex 10 -3 11
    endloop
  endfacet
  facet normal 2.71926e-32 1.22465e-16 -1
    outer loop
      vertex 10 -3 11
      vertex 1 -1.56916e-15 11
      vertex 10 -3.56756e-15 11
    endloop
  endfacet
  facet normal 2.22045e-16 1 1.22465e-16
    outer loop
      vertex 1 -2.67134e-15 20
      vertex 10 -4.66974e-15 20
      vertex 1 -1.56916e-15 11
    endloop
  endfacet
  facet normal 2.22045e-16 1 1.22465e-16
    outer loop
      vertex 1 -1.56916e-15 11
      vertex 10 -4.66974e-15 20
      vertex 10 -3.56756e-15 11
    endloop
  endfacet
  facet normal 1 -2.22045e-16 -2.54072e-33
    outer loop
      vertex 10 -4.66974e-15 20
      vertex 10 -3 20
      vertex 10 -3 11
    endloop
  endfacet
  facet normal 1 -2.22045e-16 -2.54072e-33
    outer loop
      vertex 10 -3.56756e-15 11
      vertex 10 -4.66974e-15 20
      vertex 10 -3 11
    endloop
  endfacet
  facet normal -1 2.22045e-16 2.54072e-33
    outer loop
      vertex 11 -4 20
      vertex 11 -4.89178e-15 20
      vertex 11 -4 11
    endloop
  endfacet
  facet normal -1 2.22045e-16 2.54072e-33
    outer loop
      vertex 11 -4 11
      vertex 11 -4.89178e-15 20
      vertex 11 -3.7896e-15 11
    endloop
  endfacet
  facet normal -2.71926e-32 -1.22465e-16 1
    outer loop
      vertex 11 -4.89178e-15 20
      vertex 11 -4 20
      vertex 20 -4 20
    endloop
  endfacet
  facet normal -2.71926e-32 -1.22465e-16 1
    outer loop
      vertex 20 -6.89019e-15 20
      vertex 11 -4.89178e-15 20
      vertex 20 -4 20
    endloop
  endfacet
  facet normal -2.22045e-16 -1 -1.22465e-16
    outer loop
      vertex 20 -4 20
      vertex 11 -4 20
      vertex 11 -4 11
    endloop
  endfacet
  facet normal -2.22045e-16 -1 -1.22465e-16
    outer loop
      vertex 20 -4 11
      vertex 20 -4 20
      vertex 11 -4 11
    endloop
  endfacet
  facet normal 2.71926e-32 1.22465e-16 -1
    outer loop
      vertex 11 -4 11
      vertex 11 -3.7896e-15 11
      vertex 20 -4 11
    endloop
  endfacet
  facet normal 2.71926e-32 1.22465e-16 -1
    outer loop
      vertex 20 -4 11
      vertex 11 -3.7896e-15 11
      vertex 20 -5.788e-15 11
    endloop
  endfacet
  facet normal 2.22045e-16 1 1.22465e-16
    outer loop
      vertex 11 -4.89178e-15 20
      vertex 20 -6.89019e-15 20
      vertex 11 -3.7896e-15 11
    endloop
  endfacet
  facet normal 2.22045e-16 1 1.22465e-16
    outer loop
      vertex 11 -3.7896e-15 11
      vertex 20 -6.89019e-15 20
      vertex 20 -5.788e-15 11
    endloop
  endfacet
  facet normal 1 -2.22045e-16 -2.54072e-33
    outer loop
      vertex 20 -6.89019e-15 20
      vertex 20 -4 20
      vertex 20 -4 11
    endloop
  endfacet
  facet normal 1 -2.22045e-16 -2.54072e-33
    outer loop
      vertex 20 -5.788e-15 11
      vertex 20 -6.89019e-15 20
      vertex 20 -4 11
    endloop
  endfacet
  facet normal -1 2.22045e-16 2.54072e-33
    outer loop
      vertex 21 -20 20
      vertex 21 -7.11223e-15 20
      vertex 21 -20 11
    endloop
  endfacet
  facet normal -1 2.22045e-16 2.54072e-33
    outer loop
      vertex 21 -20 11
      vertex 21 -7.11223e-15 20
      vertex 21 -6.01005e-15 11
    endloop
  endfacet
  facet normal -2.71926e-32 -1.22465e-16 1
    outer loop
      vertex 21 -7.11223e-15 20
      vertex 21 -20 20
      vertex 30 -20 20
    endloop
  endfacet
  facet normal -2.71926e-32 -1.22465e-16 1
    outer loop
      vertex 30 -9.11063e-15 20
      vertex 21 -7.11223e-15 20
      vertex 30 -20 20
    endloop
  endfacet
  facet normal -2.22045e-16 -1 -1.22465e-16
    outer loop
      vertex 30 -20 20
      vertex 21 -20 20
      vertex 21 -20 11
    endloop
  endfacet
  facet normal -2.22045e-16 -1 -1.22465e-16
    outer loop
      vertex 30 -20 11
      vertex 30 -20 20
      vertex 21 -20 11
    endloop
  endfacet
  facet normal 2.71926e-32 1.22465e-16 -1
    outer loop
      vertex 21 -20 11
      vertex 21 -6.01005e-15 11
      vertex 30 -20 11
    endloop
  endfacet
  facet normal 2.71926e-32 1.22465e-16 -1
    outer loop
      vertex 30 -20 11
      vertex 21 -6.01005e-15 11
      vertex 30 -8.00845e-15 11
    endloop
  endfacet
  facet normal 2.22045e-16 1 1.22465e-16
    outer loop
      vertex 21 -7.11223e-15 20
      vertex 30 -9.11063e-15 20
      vertex 21 -6.01005e-15 11
    endloop
  endfacet
  facet normal 2.22045e-16 1 1.22465e-16
    outer loop
      vertex 21 -6.01005e-15 11
      vertex 30 -9.11063e-15 20
      vertex 30 -8.00845e-15 11
    endloop
  endfacet
  facet normal 1 -2.22045e-16 -2.54072e-33
    outer loop
      vertex 30 -9.11063e-15 20
      vertex 30 -20 20
      vertex 30 -20 11
    endloop
  endfacet
  facet normal 1 -2.22045e-16 -2.54072e-33
    outer loop
      vertex 30 -8.00845e-15 11
      vertex 30 -9.11063e-15 20
      vertex 30 -20 11
    endloop
  endfacet
  facet normal -1 2.22045e-16 2.54072e-33
    outer loop
      vertex 1 -20 30
      vertex 1 -3.89599e-15 30
      vertex 1 -20 21
    endloop
  endfacet
  facet normal -1 2.22045e-16 2.54072e-33
    outer loop
      vertex 1 -20 21
      vertex 1 -3.89599e-15 30
      vertex 1 -2.7938e-15 21
    endloop
  endfacet
  facet normal -2.71926e-32 -1.22465e-16 1
    outer loop
      vertex 1 -3.89599e-15 30
      vertex 1 -20 30
      vertex 10 -20 30
    endloop
  endfacet
  facet normal -2.71926e-32 -1.22465e-16 1
    outer loop
      vertex 10 -5.89439e-15 30
      vertex 1 -3.89599e-15 30
      vertex 10 -20 30
    endloop
  endfacet
  facet normal -2.22045e-16 -1 -1.22465e-16
    outer loop
      vertex 10 -20 30
      vertex 1 -20 30
      vertex 1 -20 21
    endloop
  endfacet
  facet normal -2.22045e-16 -1 -1.22465e-16
    outer loop
      vertex 10 -20 21
      vertex 10 -20 30
      vertex 1 -20 21
    endloop
  endfacet
  facet normal 2.71926e-32 1.22465e-16 -1
    outer loop
      vertex 1 -20 21
      vertex 1 -2.7938e-15 21
      vertex 10 -20 21
    endloop
  endfacet
  facet normal 2.71926e-32 1.22465e-16 -1
    outer loop
      vertex 10 -20 21
      vertex 1 -2.7938e-15 21
      vertex 10 -4.7922e-15 21
    endloop
  endfacet
  facet normal 2.22045e-16 1 1.22465e-16
    outer loop
      vertex 1 -3.89599e-15 30
      vertex 10 -5.89439e-15 30
      vertex 1 -2.7938e-15 21
    endloop
  endfacet
  facet normal 2.22045e-16 1 1.22465e-16
    outer loop
      vertex 1 -2.7938e-15 21
      vertex 10 -5.89439e-15 30
      vertex 10 -4.7922e-15 21
    endloop
  endfacet
  facet normal 1 -2.22045e-16 -2.54072e-33
    outer loop
      vertex 10 -5.89439e-15 30
      vertex 10 -20 30
      vertex 10 -20 21
    endloop
  endfacet
  facet normal 1 -2.22045e-16 -2.54072e-33
    outer loop
      vertex 10 -4.7922e-15 21
      vertex 10 -5.89439e-15 30
      vertex 10 -20 21
    endloop
  endfacet
  facet normal -1 2.22045e-16 2.54072e-33
    outer loop
      vertex 11 -50 30
      vertex 11 -6.11643e-15 30
      vertex 11 -50 21
    endloop
  endfacet
  facet normal -1 2.22045e-16 2.54072e-33
    outer loop
      vertex 11 -50 21
      vertex 11 -6.11643e-15 30
      vertex 11 -5.01425e-15 21
    endloop
  endfacet
  facet normal -2.71926e-32 -1.22465e-16 1
    outer loop
      vertex 11 -6.11643e-15 30
      vertex 11 -50 30
      vertex 20 -50 30
    endloop
  endfacet
  facet normal -2.71926e-32 -1.22465e-16 1
    outer loop
      vertex 20 -8.11483e-15 30
      vertex 11 -6.11643e-15 30
      vertex 20 -50 30
    endloop
  endfacet
  facet normal -2.22045e-16 -1 -1.22465e-16
    outer loop
      vertex 20 -50 30
      vertex 11 -50 30
      vertex 11 -50 21
    endloop
  endfacet
  facet normal -2.22045e-16 -1 -1.22465e-16
    outer loop
      vertex 20 -50 21
      vertex 20 -50 30
      vertex 11 -50 21
    endloop
  endfacet
  facet normal 2.71926e-32 1.22465e-16 -1
    outer loop
      vertex 11 -50 21
      vertex 11 -5.01425e-15 21
      vertex 20 -50 21
    endloop
  endfacet
  facet normal 2.71926e-32 1.22465e-16 -1
    outer loop
      vertex 20 -50 21
      vertex 11 -5.01425e-15 21
      vertex 20 -7.01265e-15 21
    endloop
  endfacet
  facet normal 2.22045e-16 1 1.22465e-16
    outer loop
      vertex 11 -6.11643e-15 30
      vertex 20 -8.11483e-15 30
      vertex 11 -5.01425e-15 21
    endloop
  endfacet
  facet normal 2.22045e-16 1 1.22465e-16
    outer loop
      vertex 11 -5.01425e-15 21
      vertex 20 -8.11483e-15 30
      vertex 20 -7.01265e-15 21
    endloop
  endfacet
  facet normal 1 -2.22045e-16 -2.54072e-33
    outer loop
      vertex 20 -8.11483e-15 30
      vertex 20 -50 30
      vertex 20 -50 21
    endloop
  endfacet
  facet normal 1 -2.22045e-16 -2.54072e-33
    outer loop
      vertex 20 -7.01265e-15 21
      vertex 20 -8.11483e-15 30
      vertex 20 -50 21
    endloop
  endfacet
  facet normal -1 2.22045e-16 2.54072e-33
    outer loop
      vertex 21 -4 30
      vertex 21 -8.33688e-15 30
      vertex 21 -4 21
    endloop
  endfacet
  facet normal -1 2.22045e-16 2.54072e-33
    outer loop
      vertex 21 -4 21
      vertex 21 -8.33688e-15 30
      vertex 21 -7.23469e-15 21
    endloop
  endfacet
  facet normal -2.71926e-32 -1.22465e-16 1
    outer loop
      vertex 21 -8.33688e-15 30
      vertex 21 -4 30
      vertex 30 -4 30
    endloop
  endfacet
  facet normal -2.71926e-32 -1.22465e-16 1
    outer loop
      vertex 30 -1.03353e-14 30
      vertex 21 -8.33688e-15 30
      vertex 30 -4 30
    endloop
  endfacet
  facet normal -2.22045e-16 -1 -1.22465e-16
    outer loop
      vertex 30 -4 30
      vertex 21 -4 30
      vertex 21 -4 21
    endloop
  endfacet
  facet normal -2.22045e-16 -1 -1.22465e-16
    outer loop
      vertex 30 -4 21
      vertex 30 -4 30
      vertex 21 -4 21
    endloop
  endfacet
  facet normal 2.71926e-32 1.22465e-16 -1
    outer loop
      vertex 21 -4 21
      vertex 21 -7.23469e-15 21
      vertex 30 -4 21
    endloop
  endfacet
  facet normal 2.71926e-32 1.22465e-16 -1
    outer loop
      vertex 30 -4 21
      vertex 21 -7.23469e-15 21
      vertex 30 -9.2331e-15 21
    endloop
  endfacet
  facet normal 2.22045e-16 1 1.22465e-16
    outer loop
      vertex 21 -8.33688e-15 30
      vertex 30 -1.03353e-14 30
      vertex 21 -7.23469e-15 21
    endloop
  endfacet
  facet normal 2.22045e-16 1 1.22465e-16
    outer loop
      vertex 21 -7.23469e-15 21
      vertex 30 -1.03353e-14 30
      vertex 30 -9.2331e-15 21
    endloop
  endfacet
  facet normal 1 -2.22045e-16 -2.54072e-33
    outer loop
      vertex 30 -1.03353e-14 30
      vertex 30 -4 30
      vertex 30 -4 21
    endloop
  endfacet
  facet normal 1 -2.22045e-16 -2.54072e-33
    outer loop
      vertex 30 -9.2331e-15 21
      vertex 30 -1.03353e-14 30
      vertex 30 -4 21
    endloop
  endfacet
  facet normal -1 1.22465e-16 1.22465e-16
    outer loop
      vertex 30 1 1
      vertex 30 1 10
      vertex 30 10 1
    endloop
  endfacet
  facet normal -1 1.22465e-16 1.22465e-16
    outer loop
      vertex 30 10 1
      vertex 30 1 10
      vertex 30 10 10
    endloop
  endfacet
  facet normal -1.22465e-16 -1 6.01616e-49
    outer loop
      vertex 30 1 10
      vertex 30 1 1
      vertex 33 1 1
    endloop
  endfacet
  facet normal -1.22465e-16 -1 6.01616e-49
    outer loop
      vertex 33 1 10
      vertex 30 1 10
      vertex 33 1 1
    endloop
  endfacet
  facet normal -1.22465e-16 1.49976e-32 -1
    outer loop
      vertex 30 1 1
      vertex 30 10 1
      vertex 33 1 1
    endloop
  endfacet
  facet normal -1.22465e-16 1.49976e-32 -1
    outer loop
      vertex 33 1 1
      vertex 30 10 1
      vertex 33 10 1
    endloop
  endfacet
  facet normal 1.22465e-16 1 -6.01616e-49
    outer loop
      vertex 30 10 1
      vertex 30 10 10
      vertex 33 10 1
    endloop
  endfacet
  facet normal 1.22465e-16 1 -6.01616e-49
    outer loop
      vertex 33 10 1
      vertex 30 10 10
      vertex 33 10 10
    endloop
  endfacet
  facet normal 1.22465e-16 -1.49976e-32 1
    outer loop
      vertex 30 10 10
      vertex 30 1 10
      vertex 33 1 10
    endloop
  endfacet
  facet normal 1.22465e-16 -1.49976e-32 1
    outer loop
      vertex 33 10 10
      vertex 30 10 10
      vertex 33 1 10
    endloop
  endfacet
  facet normal 1 -1.22465e-16 -1.22465e-16
    outer loop
      vertex 33 1 10
      vertex 33 1 1
      vertex 33 10 1
    endloop
  endfacet
  facet normal 1 -1.22465e-16 -1.22465e-16
    outer loop
      vertex 33 10 10
      vertex 33 1 10
      vertex 33 10 1
    endloop
  endfacet
  facet normal -1 1.22465e-16 1.22465e-16
    outer loop
      vertex 30 11 1
      vertex 30 11 10
      vertex 30 20 1
    endloop
  endfacet
  facet normal -1 1.22465e-16 1.22465e-16
    outer loop
      vertex 30 20 1
      vertex 30 11 10
      vertex 30 20 10
    endloop
  endfacet
  facet normal -1.22465e-16 -1 6.01616e-49
    outer loop
      vertex 30 11 10
      vertex 30 11 1
      vertex 38 11 1
    endloop
  endfacet
  facet normal -1.22465e-16 -1 6.01616e-49
    outer loop
      vertex 38 11 10
      vertex 30 11 10
      vertex 38 11 1
    endloop
  endfacet
  facet normal -1.22465e-16 1.49976e-32 -1
    outer loop
      vertex 30 11 1
      vertex 30 20 1
      vertex 38 11 1
    endloop
  endfacet
  facet normal -1.22465e-16 1.49976e-32 -1
    outer loop
      vertex 38 11 1
      vertex 30 20 1
      vertex 38 20 1
    endloop
  endfacet
  facet normal 1.22465e-16 1 -6.01616e-49
    outer loop
      vertex 30 20 1
      vertex 30 20 10
      vertex 38 20 1
    endloop
  endfacet
  facet normal 1.22465e-16 1 -6.01616e-49
    outer loop
      vertex 38 20 1
      vertex 30 20 10
      vertex 38 20 10
    endloop
  endfacet
  facet normal 1.22465e-16 -1.49976e-32 1
    outer loop
      vertex 30 20 10
      vertex 30 11 10
      vertex 38 11 10
    endloop
  endfacet
  facet normal 1.22465e-16 -1.49976e-32 1
    outer loop
      vertex 38 20 10
      vertex 30 20 10
      vertex 38 11 10
    endloop
  endfacet
  facet normal 1 -1.22465e-16 -1.22465e-16
    outer loop
      vertex 38 11 10
      vertex 38 11 1
      vertex 38 20 1
    endloop
  endfacet
  facet normal 1 -1.22465e-16 -1.22465e-16
    outer loop
      vertex 38 20 10
      vertex 38 11 10
      vertex 38 20 1
    endloop
  endfacet
  facet normal -1 1.22465e-16 1.22465e-16
    outer loop
      vertex 30 21 1
      vertex 30 21 10
      vertex 30 30 1
    endloop
  endfacet
  facet normal -1 1.22465e-16 1.22465e-16
    outer loop
      vertex 30 30 1
      vertex 30 21 10
      vertex 30 30 10
    endloop
  endfacet
  facet normal -1.22465e-16 -1 6.01616e-49
    outer loop
      vertex 30 21 10
      vertex 30 21 1
      vertex 33 21 1
    endloop
  endfacet
  facet normal -1.22465e-16 -1 6.01616e-49
    outer loop
      vertex 33 21 10
      vertex 30 21 10
      vertex 33 21 1
    endloop
  endfacet
  facet normal -1.22465e-16 1.49976e-32 -1
    outer loop
      vertex 30 21 1
      vertex 30 30 1
      vertex 33 21 1
    endloop
  endfacet
  facet normal -1.22465e-16 1.49976e-32 -1
    outer loop
      vertex 33 21 1
      vertex 30 30 1
      vertex 33 30 1
    endloop
  endfacet
  facet normal 1.22465e-16 1 -6.01616e-49
    outer loop
      vertex 30 30 1
      vertex 30 30 10
      vertex 33 30 1
    endloop
  endfacet
  facet normal 1.22465e-16 1 -6.01616e-49
    outer loop
      vertex 33 30 1
      vertex 30 30 10
      vertex 33 30 10
    endloop
  endfacet
  facet normal 1.22465e-16 -1.49976e-32 1
    outer loop
      vertex 30 30 10
      vertex 30 21 10
      vertex 33 21 10
    endloop
  endfacet
  facet normal 1.22465e-16 -1.49976e-32 1
    outer loop
      vertex 33 30 10
      vertex 30 30 10
      vertex 33 21 10
    endloop
  endfacet
  facet normal 1 -1.22465e-16 -1.22465e-16
    outer loop
      vertex 33 21 10
      vertex 33 21 1
      vertex 33 30 1
    endloop
  endfacet
  facet normal 1 -1.22465e-16 -1.22465e-16
    outer loop
      vertex 33 30 10
      vertex 33 21 10
      vertex 33 30 1
    endloop
  endfacet
  facet normal -1 1.22465e-16 1.22465e-16
    outer loop
      vertex 30 1 11
      vertex 30 1 20
      vertex 30 10 11
    endloop
  endfacet
  facet normal -1 1.22465e-16 1.22465e-16
    outer loop
      vertex 30 10 11
      vertex 30 1 20
      vertex 30 10 20
    endloop
  endfacet
  facet normal -1.22465e-16 -1 6.01616e-49
    outer loop
      vertex 30 1 20
      vertex 30 1 11
      vertex 34 1 11
    endloop
  endfacet
  facet normal -1.22465e-16 -1 6.01616e-49
    outer loop
      vertex 34 1 20
      vertex 30 1 20
      vertex 34 1 11
    endloop
  endfacet
  facet normal -1.22465e-16 1.49976e-32 -1
    outer loop
      vertex 30 1 11
      vertex 30 10 11
      vertex 34 1 11
    endloop
  endfacet
  facet normal -1.22465e-16 1.49976e-32 -1
    outer loop
      vertex 34 1 11
      vertex 30 10 11
      vertex 34 10 11
    endloop
  endfacet
  facet normal 1.22465e-16 1 -6.01616e-49
    outer loop
      vertex 30 10 11
      vertex 30 10 20
      vertex 34 10 11
    endloop
  endfacet
  facet normal 1.22465e-16 1 -6.01616e-49
    outer loop
      vertex 34 10 11
      vertex 30 10 20
      vertex 34 10 20
    endloop
  endfacet
  facet normal 1.22465e-16 -1.49976e-32 1
    outer loop
      vertex 30 10 20
      vertex 30 1 20
      vertex 34 1 20
    endloop
  endfacet
  facet normal 1.22465e-16 -1.49976e-32 1
    outer loop
      vertex 34 10 20
      vertex 30 10 20
      vertex 34 1 20
    endloop
  endfacet
  facet normal 1 -1.22465e-16 -1.22465e-16
    outer loop
      vertex 34 1 20
      vertex 34 1 11
      vertex 34 10 11
    endloop
  endfacet
  facet normal 1 -1.22465e-16 -1.22465e-16
    outer loop
      vertex 34 10 20
      vertex 34 1 20
      vertex 34 10 11
    endloop
  endfacet
  facet normal -1 1.22465e-16 1.22465e-16
    outer loop
      vertex 30 11 11
      vertex 30 11 20
      vertex 30 20 11
    endloop
  endfacet
  facet normal -1 1.22465e-16 1.22465e-16
    outer loop
      vertex 30 20 11
      vertex 30 11 20
      vertex 30 20 20
    endloop
  endfacet
  facet normal -1.22465e-16 -1 6.01616e-49
    outer loop
      vertex 30 11 20
      vertex 30 11 11
      vertex 80 11 11
    endloop
  endfacet
  facet normal -1.22465e-16 -1 6.01616e-49
    outer loop
      vertex 80 11 20
      vertex 30 11 20
      vertex 80 11 11
    endloop
  endfacet
  facet normal -1.22465e-16 1.49976e-32 -1
    outer loop
      vertex 30 11 11
      vertex 30 20 11
      vertex 80 11 11
    endloop
  endfacet
  facet normal -1.22465e-16 1.49976e-32 -1
    outer loop
      vertex 80 11 11
      vertex 30 20 11
      vertex 80 20 11
    endloop
  endfacet
  facet normal 1.22465e-16 1 -6.01616e-49
    outer loop
      vertex 30 20 11
      vertex 30 20 20
      vertex 80 20 11
    endloop
  endfacet
  facet normal 1.22465e-16 1 -6.01616e-49
    outer loop
      vertex 80 20 11
      vertex 30 20 20
      vertex 80 20 20
    endloop
  endfacet
  facet normal 1.22465e-16 -1.49976e-32 1
    outer loop
      vertex 30 20 20
      vertex 30 11 20
      vertex 80 11 20
    endloop
  endfacet
  facet normal 1.22465e-16 -1.49976e-32 1
    outer loop
      vertex 80 20 20
      vertex 30 20 20
      vertex 80 11 20
    endloop
  endfacet
  facet normal 1 -1.22465e-16 -1.22465e-16
    outer loop
      vertex 80 11 20
      vertex 80 11 11
      vertex 80 20 11
    endloop
  endfacet
  facet normal 1 -1.22465e-16 -1.22465e-16
    outer loop
      vertex 80 20 20
      vertex 80 11 20
      vertex 80 20 11
    endloop
  endfacet
  facet normal -1 1.22465e-16 1.22465e-16
    outer loop
      vertex 30 21 11
      vertex 30 21 20
      vertex 30 30 11
    endloop
  endfacet
  facet normal -1 1.22465e-16 1.22465e-16
    outer loop
      vertex 30 30 11
      vertex 30 21 20
      vertex 30 30 20
    endloop
  endfacet
  facet normal -1.22465e-16 -1 6.01616e-49
    outer loop
      vertex 30 21 20
      vertex 30 21 11
      vertex 80 21 11
    endloop
  endfacet
  facet normal -1.22465e-16 -1 6.01616e-49
    outer loop
      vertex 80 21 20
      vertex 30 21 20
      vertex 80 21 11
    endloop
  endfacet
  facet normal -1.22465e-16 1.49976e-32 -1
    outer loop
      vertex 30 21 11
      vertex 30 30 11
      vertex 80 21 11
    endloop
  endfacet
  facet normal -1.22465e-16 1.49976e-32 -1
    outer loop
      vertex 80 21 11
      vertex 30 30 11
      vertex 80 30 11
    endloop
  endfacet
  facet normal 1.22465e-16 1 -6.01616e-49
    outer loop
      vertex 30 30 11
      vertex 30 30 20
      vertex 80 30 11
    endloop
  endfacet
  facet normal 1.22465e-16 1 -6.01616e-49
    outer loop
      vertex 80 30 11
      vertex 30 30 20
      vertex 80 30 20
    endloop
  endfacet
  facet normal 1.22465e-16 -1.49976e-32 1
    outer loop
      vertex 30 30 20
      vertex 30 21 20
      vertex 80 21 20
    endloop
  endfacet
  facet normal 1.22465e-16 -1.49976e-32 1
    outer loop
      vertex 80 30 20
      vertex 30 30 20
      vertex 80 21 20
    endloop
  endfacet
  facet normal 1 -1.22465e-16 -1.22465e-16
    outer loop
      vertex 80 21 20
      vertex 80 21 11
      vertex 80 30 11
    endloop
  endfacet
  facet normal 1 -1.22465e-16 -1.22465e-16
    outer loop
      vertex 80 30 20
      vertex 80 21 20
      vertex 80 30 11
    endloop
  endfacet
  facet normal -1 1.22465e-16 1.22465e-16
    outer loop
      vertex 30 1 21
      vertex 30 1 30
      vertex 30 10 21
    endloop
  endfacet
  facet normal -1 1.22465e-16 1.22465e-16
    outer loop
      vertex 30 10 21
      vertex 30 1 30
      vertex 30 10 30
    endloop
  endfacet
  facet normal -1.22465e-16 -1 6.01616e-49
    outer loop
      vertex 30 1 30
      vertex 30 1 21
      vertex 33 1 21
    endloop
  endfacet
  facet normal -1.22465e-16 -1 6.01616e-49
    outer loop
      vertex 33 1 30
      vertex 30 1 30
      vertex 33 1 21
    endloop
  endfacet
  facet normal -1.22465e-16 1.49976e-32 -1
    outer loop
      vertex 30 1 21
      vertex 30 10 21
      vertex 33 1 21
    endloop
  endfacet
  facet normal -1.22465e-16 1.49976e-32 -1
    outer loop
      vertex 33 1 21
      vertex 30 10 21
      vertex 33 10 21
    endloop
  endfacet
  facet normal 1.22465e-16 1 -6.01616e-49
    outer loop
      vertex 30 10 21
      vertex 30 10 30
      vertex 33 10 21
    endloop
  endfacet
  facet normal 1.22465e-16 1 -6.01616e-49
    outer loop
      vertex 33 10 21
      vertex 30 10 30
      vertex 33 10 30
    endloop
  endfacet
  facet normal 1.22465e-16 -1.49976e-32 1
    outer loop
      vertex 30 10 30
      vertex 30 1 30
      vertex 33 1 30
    endloop
  endfacet
  facet normal 1.22465e-16 -1.49976e-32 1
    outer loop
      vertex 33 10 30
      vertex 30 10 30
      vertex 33 1 30
    endloop
  endfacet
  facet normal 1 -1.22465e-16 -1.22465e-16
    outer loop
      vertex 33 1 30
      vertex 33 1 21
      vertex 33 10 21
    endloop
  endfacet
  facet normal 1 -1.22465e-16 -1.22465e-16
    outer loop
      vertex 33 10 30
      vertex 33 1 30
      vertex 33 10 21
    endloop
  endfacet
  facet normal -1 1.22465e-16 1.22465e-16
    outer loop
      vertex 30 11 21
      vertex 30 11 30
      vertex 30 20 21
    endloop
  endfacet
  facet normal -1 1.22465e-16 1.22465e-16
    outer loop
      vertex 30 20 21
      vertex 30 11 30
      vertex 30 20 30
    endloop
  endfacet
  facet normal -1.22465e-16 -1 6.01616e-49
    outer loop
      vertex 30 11 30
      vertex 30 11 21
      vertex 31 11 21
    endloop
  endfacet
  facet normal -1.22465e-16 -1 6.01616e-49
    outer loop
      vertex 31 11 30
      vertex 30 11 30
      vertex 31 11 21
    endloop
  endfacet
  facet normal -1.22465e-16 1.49976e-32 -1
    outer loop
      vertex 30 11 21
      vertex 30 20 21
      vertex 31 11 21
    endloop
  endfacet
  facet normal -1.22465e-16 1.49976e-32 -1
    outer loop
      vertex 31 11 21
      vertex 30 20 21
      vertex 31 20 21
    endloop
  endfacet
  facet normal 1.22465e-16 1 -6.01616e-49
    outer loop
      vertex 30 20 21
      vertex 30 20 30
      vertex 31 20 21
    endloop
  endfacet
  facet normal 1.22465e-16 1 -6.01616e-49
    outer loop
      vertex 31 20 21
      vertex 30 20 30
      vertex 31 20 30
    endloop
  endfacet
  facet normal 1.22465e-16 -1.49976e-32 1
    outer loop
      vertex 30 20 30
      vertex 30 11 30
      vertex 31 11 30
    endloop
  endfacet
  facet normal 1.22465e-16 -1.49976e-32 1
    outer loop
      vertex 31 20 30
      vertex 30 20 30
      vertex 31 11 30
    endloop
  endfacet
  facet normal 1 -1.22465e-16 -1.22465e-16
    outer loop
      vertex 31 11 30
      vertex 31 11 21
      vertex 31 20 21
    endloop
  endfacet
  facet normal 1 -1.22465e-16 -1.22465e-16
    outer loop
      vertex 31 20 30
      vertex 31 11 30
      vertex 31 20 21
    endloop
  endfacet
  facet normal -1 1.22465e-16 1.22465e-16
    outer loop
      vertex 30 21 21
      vertex 30 21 30
      vertex 30 30 21
    endloop
  endfacet
  facet normal -1 1.22465e-16 1.22465e-16
    outer loop
      vertex 30 30 21
      vertex 30 21 30
      vertex 30 30 30
    endloop
  endfacet
  facet normal -1.22465e-16 -1 6.01616e-49
    outer loop
      vertex 30 21 30
      vertex 30 21 21
      vertex 80 21 21
    endloop
  endfacet
  facet normal -1.22465e-16 -1 6.01616e-49
    outer loop
      vertex 80 21 30
      vertex 30 21 30
      vertex 80 21 21
    endloop
  endfacet
  facet normal -1.22465e-16 1.49976e-32 -1
    outer loop
      vertex 30 21 21
      vertex 30 30 21
      vertex 80 21 21
    endloop
  endfacet
  facet normal -1.22465e-16 1.49976e-32 -1
    outer loop
      vertex 80 21 21
      vertex 30 30 21
      vertex 80 30 21
    endloop
  endfacet
  facet normal 1.22465e-16 1 -6.01616e-49
    outer loop
      vertex 30 30 21
      vertex 30 30 30
      vertex 80 30 21
    endloop
  endfacet
  facet normal 1.22465e-16 1 -6.01616e-49
    outer loop
      vertex 80 30 21
      vertex 30 30 30
      vertex 80 30 30
    endloop
  endfacet
  facet normal 1.22465e-16 -1.49976e-32 1
    outer loop
      vertex 30 30 30
      vertex 30 21 30
      vertex 80 21 30
    endloop
  endfacet
  facet normal 1.22465e-16 -1.49976e-32 1
    outer loop
      vertex 80 30 30
      vertex 30 30 30
      vertex 80 21 30
    endloop
  endfacet
  facet normal 1 -1.22465e-16 -1.22465e-16
    outer loop
      vertex 80 21 30
      vertex 80 21 21
      vertex 80 30 21
    endloop
  endfacet
  facet normal 1 -1.22465e-16 -1.22465e-16
    outer loop
      vertex 80 30 30
      vertex 80 21 30
      vertex 80 30 21
    endloop
  endfacet
  facet normal -2.22045e-16 -1 1.22465e-16
    outer loop
      vertex 6.66134e-15 30 30
      vertex 6.66134e-15 30 21
      vertex 9 30 21
    endloop
  endfacet
  facet normal -2.22045e-16 -1 1.22465e-16
    outer loop
      vertex 9 30 30
      vertex 6.66134e-15 30 30
      vertex 9 30 21
    endloop
  endfacet
  facet normal -2.71926e-32 -1.22465e-16 -1
    outer loop
      vertex 6.66134e-15 30 21
      vertex 1.02141e-14 46 21
      vertex 9 30 21
    endloop
  endfacet
  facet normal -2.71926e-32 -1.22465e-16 -1
    outer loop
      vertex 9 30 21
      vertex 1.02141e-14 46 21
      vertex 9 46 21
    endloop
  endfacet
  facet normal -1 2.22045e-16 -2.54072e-33
    outer loop
      vertex 6.66134e-15 30 21
      vertex 6.66134e-15 30 30
      vertex 1.02141e-14 46 21
    endloop
  endfacet
  facet normal -1 2.22045e-16 -2.54072e-33
    outer loop
      vertex 1.02141e-14 46 21
      vertex 6.66134e-15 30 30
      vertex 1.02141e-14 46 30
    endloop
  endfacet
  facet normal 2.71926e-32 1.22465e-16 1
    outer loop
      vertex 1.02141e-14 46 30
      vertex 6.66134e-15 30 30
      vertex 9 30 30
    endloop
  endfacet
  facet normal 2.71926e-32 1.22465e-16 1
    outer loop
      vertex 9 46 30
      vertex 1.02141e-14 46 30
      vertex 9 30 30
    endloop
  endfacet
  facet normal 1 -2.22045e-16 2.54072e-33
    outer loop
      vertex 9 30 30
      vertex 9 30 21
      vertex 9 46 21
    endloop
  endfacet
  facet normal 1 -2.22045e-16 2.54072e-33
    outer loop
      vertex 9 46 30
      vertex 9 30 30
      vertex 9 46 21
    endloop
  endfacet
  facet normal 2.22045e-16 1 -1.22465e-16
    outer loop
      vertex 1.02141e-14 46 21
      vertex 1.02141e-14 46 30
      vertex 9 46 21
    endloop
  endfacet
  facet normal 2.22045e-16 1 -1.22465e-16
    outer loop
      vertex 9 46 21
      vertex 1.02141e-14 46 30
      vertex 9 46 30
    endloop
  endfacet
endsolid OpenSCAD_Model
